<svg id="Layer_1" data-name="Layer 1" xmlns="http://www.w3.org/2000/svg" viewBox="0 0 400 260"><defs><style>.cls-1{fill:#fff;}.cls-2{fill:#f7a707;}.cls-3{fill:#010202;}.cls-4{fill:#1d1d1b;}</style></defs><path class="cls-1" d="M306.8,259.68A197.82,197.82,0,0,0,330.9,216a224.57,224.57,0,0,0,13.29-48.83,247.94,247.94,0,0,0,2.3-54.44,287,287,0,0,0-9.05-54.46A379,379,0,0,0,319.35,6.37Q318,3.19,316.57,0c-.19-.44-.84-.06-.65.38a391.32,391.32,0,0,1,19,51.59,292.93,292.93,0,0,1,10.3,54.28,252,252,0,0,1-.9,54.56,227,227,0,0,1-11.83,48.81,200.53,200.53,0,0,1-22.71,44.52q-1.79,2.59-3.65,5.13c-.28.39.37.77.65.38Z"/><path class="cls-2" d="M218.5,59.48a182.27,182.27,0,0,1-16.67,57.42,159.06,159.06,0,0,1-8.2,14.72c-.26.41.39.78.65.37a171.07,171.07,0,0,0,22.18-55.8q1.75-8.3,2.79-16.71c.06-.48-.69-.48-.75,0Z"/><path class="cls-1" d="M215.64.28a143.27,143.27,0,0,1,4.62,34.6.38.38,0,0,0,.75,0A144,144,0,0,0,216.36.08a.37.37,0,0,0-.72.2Z"/><path class="cls-1" d="M400,5.56a36,36,0,0,0-18.88,8c-5.22,4.49-9,10.4-13.07,15.87C358.45,42.24,349.33,55.65,338,67c-20.66,20.69-49,33.52-77.21,39.89-16.35,3.69-33.6,5-50.16,1.87-15.3-2.9-29.64-9.34-43.34-16.56-25.1-13.25-49.93-30-79-32.29C59.62,57.72,31.16,68.07,8.67,85.43c-3.08,2.38-6,4.88-8.94,7.49-.35.32.18.85.54.53,22-19.9,50.49-33.16,80.53-33.05s55.56,15.94,81.09,29.8c13,7.08,26.45,13.7,40.83,17.55,15.19,4.07,31.05,4.35,46.56,2.07a177.58,177.58,0,0,0,43-12.25,153.72,153.72,0,0,0,35.94-20.89c11.77-9.34,21.19-21,30.14-33q6.94-9.3,13.81-18.67c4.47-6.11,9.22-12,16.18-15.34A38.39,38.39,0,0,1,400,6.31c.47-.06.48-.81,0-.75Z"/><path class="cls-1" d="M317,260.18a379,379,0,0,0,35.67-26.07A247.58,247.58,0,0,0,384.09,203,200.85,200.85,0,0,0,400,181.19c.26-.41-.39-.78-.65-.38A211.13,211.13,0,0,1,370.27,217a285.61,285.61,0,0,1-33.18,28.36c-6.67,4.92-13.51,9.61-20.45,14.16-.41.26,0,.91.37.64Z"/><path class="cls-1" d="M.21,220.76a360.08,360.08,0,0,0,36.05,31.18q5.41,4.06,11,7.88c.4.27.77-.38.38-.65a327.36,327.36,0,0,1-37.1-29.61q-5-4.59-9.83-9.33a.38.38,0,0,0-.53.53Z"/><path class="cls-1" d="M346.83,170.16s-.05,0-.16-.11Z"/><path class="cls-1" d="M342.88,169l-.19,0Z"/><path class="cls-1" d="M343,169h0Z"/><path class="cls-1" d="M350,172.6a3,3,0,0,0-.42-.44C349.78,172.29,350,172.62,350,172.6Z"/><path class="cls-1" d="M336.06,171.79l-.11.06Z"/><polygon class="cls-1" points="333.4 189.14 333.4 189.14 333.4 189.14 333.4 189.14"/><path class="cls-1" d="M333.4,189.14a2,2,0,0,0,.38.29Z"/><polygon class="cls-1" points="341.34 192.12 341.34 192.12 341.33 192.12 341.34 192.12"/><path class="cls-1" d="M330.13,184.38Z"/><path class="cls-1" d="M352.51,183.47c0,.06-.05.11-.07.17h0S352.49,183.53,352.51,183.47Z"/><path class="cls-1" d="M351.1,186.56l-.1.15v0Z"/><path class="cls-1" d="M341.21,192.14l.38,0h-.25Z"/><path class="cls-1" d="M331.5,187l-.06-.07C331.48,187,331.49,187,331.5,187Z"/><path class="cls-1" d="M330.14,184.46c.08.19,0,0,0-.08S330.12,184.39,330.14,184.46Z"/><path class="cls-1" d="M347.83,190s-.05,0,0,0Z"/><path class="cls-1" d="M351.42,174.62s.05.1.1.18A1.3,1.3,0,0,0,351.42,174.62Z"/><path class="cls-1" d="M343.76,191.78l-.19.05A.58.58,0,0,0,343.76,191.78Z"/><polygon class="cls-1" points="351.62 174.99 351.73 175.22 351.74 175.22 351.62 174.99"/><path class="cls-1" d="M350.73,173.47l.19.26A2.21,2.21,0,0,0,350.73,173.47Z"/><path class="cls-1" d="M352,184.83v0C351.9,185.05,351.94,184.93,352,184.83Z"/><path class="cls-1" d="M350,172.6l.09.09-.09-.11Z"/><path class="cls-1" d="M352.9,181.12c0-.07,0-.1,0-.1S352.87,181.16,352.9,181.12Z"/><path class="cls-1" d="M350.26,177.94l.06-.07Z"/><path class="cls-1" d="M350.39,171.6l.27-.16h0Z"/><path class="cls-1" d="M337.41,188.28l.09-.05Z"/><path class="cls-1" d="M345.19,182.56a.48.48,0,0,0,.1-.09Z"/><path class="cls-1" d="M355.05,172.29a1.36,1.36,0,0,0,0-.4A2.68,2.68,0,0,1,355.05,172.29Z"/><path class="cls-1" d="M329.89,188v0S329.89,188,329.89,188Z"/><path class="cls-1" d="M354.9,172.21l0,0v-.08A.5.5,0,0,1,354.9,172.21Z"/><path class="cls-1" d="M333.29,192h0Z"/><path class="cls-1" d="M334,191.64l-.15.09Z"/><path class="cls-1" d="M345.78,182.07l.05,0Z"/><path class="cls-1" d="M324.49,174.36a2.62,2.62,0,0,0,.54,1l-.06-.06c.14.19.29.37.44.55-.11-.13-.21-.26-.31-.4.1.12.19.19.28.31a13.22,13.22,0,0,0,2,1.78c.49.31.28.29.73.57h0l-.08,0,.1.07.16.2h0a2.46,2.46,0,0,0,.17.27c0,.09.12.16.17.25s.05.09.11.09h0s.05,0,.05,0,.09.19.15.26a1.88,1.88,0,0,1,.16.23,0,0,0,0,0,0,0c.07,0,.07.05.08.07a1.06,1.06,0,0,0,.19.23h0l0,.42v-.1a4.16,4.16,0,0,0,0,.63c0-.16-.05-.22,0-.62.05,0,0,.49.06.46,0,.3,0,.48.06.74,0,.44.12,1.07.17,1.4l.29.89c.06.33-.05-.07.07.37l0,.06c.13.36.1.3.08.29.15.38.15.31.34.77a2,2,0,0,1-.14-.25l.23.51-.1.13-.2.24.06-.1c-.15.21-.26.28-.41.48s-.24.32-.18.3c-.18.28-.09.09-.16.17a4.42,4.42,0,0,1-.4.55c-.05.18-.5.73-.48.82l-.17.22s0,.08-.09.27-.11.12-.15.17l0,.15a6.4,6.4,0,0,0-.74,1.91,2.89,2.89,0,0,0,0,1.17,1.86,1.86,0,0,0,.66,1,2.57,2.57,0,0,0,1,.41,2.88,2.88,0,0,0,1.15-.08l-.07,0a4.72,4.72,0,0,0,.67-.19l-.49.13.4-.13a13.2,13.2,0,0,0,2.43-1.06c.49-.33.37-.14.84-.45l-.09.07c.52-.31.8-.49,1.3-.83,0,.06.15-.06.24-.12l.13.07-.06-.07c.8.3-.07.05.69.39.5.21-.18-.09.13,0a6.21,6.21,0,0,0,.94.38c.14.07.42.16.44.21l.61.16a3.12,3.12,0,0,0,.52.09,4.31,4.31,0,0,0-.55-.11,4.11,4.11,0,0,1-.61-.18H338c.42.14,1,.21,1.28.29-.06,0-.09,0-.05,0,.31,0,.52,0,.72.06l.7,0c.08,0-.28,0-.54,0a9.7,9.7,0,0,0,1,.07s-.41,0-.48,0a5.12,5.12,0,0,0,.68,0h0c.09-.06.51,0,.93-.06a5.14,5.14,0,0,0,1-.16l.64-.2c.14,0,.19,0,.13,0a1.19,1.19,0,0,0-.27.07c.32-.08.71-.13.54-.07.51-.14-.19,0,.12-.07a6,6,0,0,0,.69-.21c-.09,0-.33.08,0-.06s.44-.15.82-.31c-.05,0,.13,0-.15.1a3.92,3.92,0,0,0,.57-.26c-.41.18.64-.36.33-.24l.4-.19-.23.13a1.79,1.79,0,0,0,.45-.27c.14-.08.48-.3.52-.3a5,5,0,0,1,.46-.32c.16-.13,0,0,0-.07a6,6,0,0,0,.55-.45c.05,0,.13,0,.05.07.16-.16.08-.14.22-.27l.68.17a8.61,8.61,0,0,0,4.39.23c.12,0,.45-.19.31-.17.25-.1.38-.14.41-.19-.33.17.07-.1-.26,0l.2-.11s-.26.16-.23.1l0,.07a1.26,1.26,0,0,1-.33.09,1.5,1.5,0,0,1-.66.17h.11c-.33,0-.2,0-.27,0h-.21c.21,0,.55-.07.37-.05-.38,0,.1,0-.19,0s-.13,0-.12,0H353s.21,0,.08,0h-.4c-.07-.06-.44,0-.62-.08h.1a8.38,8.38,0,0,0,.84,0,3.47,3.47,0,0,0,1.86-.4,1.61,1.61,0,0,0,.73-1c0-.06.27-.93-.8-2.15l.1.08-.22-.21-.09-.08c0-.06-.17-.21,0-.05a5.6,5.6,0,0,0-.45-.4l0-.07c-.11-.09-.12-.08,0,0-.15-.14-.77-.5-.64-.49-.42-.24-.55-.35-1.06-.61.24.11,0,0-.07-.09h0l0,0,0,0,.09-.2c0-.11.11-.57.14-.68.11-.51.12-.71.2-1,0,.09-.1.31,0-.1.07,0,.11-.87.14-.85a2.06,2.06,0,0,0,0-.49l0,0a11.23,11.23,0,0,1-.09-1.12c0,.05,0-.08,0-.25a2.16,2.16,0,0,1,0-.48,2,2,0,0,1-.09-.45,2.24,2.24,0,0,0-.13-.44.91.91,0,0,1,0-.42l-.06-.16a1.86,1.86,0,0,0-.07-.28c.21-.25.42-.5.61-.75a8.6,8.6,0,0,0,2-3.92c0-.13,0-.48,0-.35a1.69,1.69,0,0,0,0-.45c0,.37-.07-.1-.07.25l0-.22s.05.3,0,.25l0,.06a1.27,1.27,0,0,1-.05.34,1.59,1.59,0,0,1-.11.68l0-.11c-.1.31-.09.18-.12.24l0-.06a2.56,2.56,0,0,1-.11.24c.09-.18.16-.52.1-.35-.13.36,0-.09,0,.19s-.07.11-.08.1l-.12.29s.08-.19,0-.08a3.76,3.76,0,0,1-.16.37c-.08,0-.17.41-.32.53l.05-.08q.23-.39.39-.75a3.49,3.49,0,0,0,.39-1.86,1.62,1.62,0,0,0-.62-1.08,2.39,2.39,0,0,0-2.28-.14l.11-.06a1.39,1.39,0,0,0-.28.12l-.12,0c-.06,0-.25.07,0,0a5.45,5.45,0,0,0-.55.25H351c-.13.07-.13.07,0,0-.2.08-.78.5-.72.39-.39.28-.54.36-1,.72.34-.29-.43.27-.06,0l-.14.09,0,0c-.06-.06-.12-.12-.12-.14.33.28-.21-.25-.15-.22-.13-.09.24.24.07.11a3.92,3.92,0,0,1-.44-.39l.09.06-.3-.26c-.07,0,.28.27,0,0-.06-.08-.38-.26-.36-.27s.08,0,.34.14c-.21-.14-.91-.6-.65-.38l-.26-.17c.16.11.59.45.07.1h0c-.12-.07-.26-.12-.39-.19l-.15-.11s-.06,0-.2-.09-.16-.1-.14-.11c-.43-.2-.4-.16-.46-.17-.24-.11-.32-.16-.2-.13-.32-.17-.92-.34-1.13-.45-.46-.12.09,0-.19,0a5.68,5.68,0,0,0-1-.29,12.91,12.91,0,0,0-1.3-.17c.2.08-.18,0-.34,0a1.2,1.2,0,0,0-.23,0c-.12,0-.18,0,.16,0a2.77,2.77,0,0,0-.41,0c-.14,0,0,0,.18,0s.29,0,.08,0c-.47,0-.77,0-1.32.07.08,0,0,0-.1,0l0,0,.27,0h-.09l-.2,0-.08-.05a1,1,0,0,0-.49-.09s.14,0,.24,0,.16,0,0,0h-.29l-.23,0-.48.08c-.33.07-.67.17-1,.25,0,0,0,0,0,0-.47.2-.44.11-1.09.36a11.54,11.54,0,0,0-2.62,1.51,13.62,13.62,0,0,0-1.8,1.64l-.26-.07-.3-.08.11,0c-.25-.06-.36-.13-.6-.18s-.39-.09-.35,0c-.32-.06-.12-.05-.22-.08a3.54,3.54,0,0,1-.66-.14c-.19,0-.87-.16-.95-.11l-.27-.06s-.06,0-.28,0a.39.39,0,0,1-.22-.07l-.14,0a6.27,6.27,0,0,0-2,.11,2.73,2.73,0,0,0-1.07.49,1.87,1.87,0,0,0-.67,1A2.52,2.52,0,0,0,324.49,174.36Zm2.66,1.68h0Zm1.3,2.57h0s0,0,0,0Zm.25.37s0,0,0,0S328.71,179,328.7,179Zm.31.05h0a.08.08,0,0,0,0,0c-.11-.15-.25-.29-.35-.45.18.13.38.25.63.4,0,0,0,.05.1.1v.41l-.05-.06A3.47,3.47,0,0,1,329,179Zm7.23,4.21c.25.14.48.29.39.27s.53.29.53.29.79.44,2,1.09l.17.08-.07,0s0,0,0,0h0c-.08,0-.13.08-.19.12a3.12,3.12,0,0,0-.43.27h0a.6.6,0,0,0-.21.14h0s0,0,0,0v0h0l-.26.13-.15-.05a4.34,4.34,0,0,1-.5-.2l-.48-.19a.35.35,0,0,1-.13-.05,5,5,0,0,0-.74-.34l-.53-.26a5.36,5.36,0,0,1-.62-.34,2.75,2.75,0,0,1-.29-.17l-.19-.12a2.5,2.5,0,0,1-.35-.21c-.05,0-.1-.09-.14-.08a1.74,1.74,0,0,0-.46-.32h0s0,0-.07,0h0a1.05,1.05,0,0,0-.3-.22v0l-.09-.05c-.12-.15-.31-.23-.44-.37h0c0-.06-.09-.07-.13-.1a1.54,1.54,0,0,0-.29-.23h0a.27.27,0,0,0-.15-.11h0l-.26-.27a3.61,3.61,0,0,0-.35-.33l-.23-.21c0-.1,0-.3,0-.53a5,5,0,0,1,0-.55l2.86,1.73c.14.06.42.22.64.35l.21.15c.23.12.48.22.68.35h0C335.81,183,336,183.15,336.24,183.24Zm4.48,1h0Zm.12.12h0l.08,0s.05,0,.07,0h0l.05,0h0s0-.08.06-.11,0,0,.09,0a.92.92,0,0,0,.26-.22s.06,0,.1,0h0a.87.87,0,0,0,.33-.27H342a1.06,1.06,0,0,1,.15-.15,2.57,2.57,0,0,1,.32-.22h0l.2,0-.06-.05.08-.05h0l0,0h0a.28.28,0,0,0,.19-.12A.17.17,0,0,0,343,183l0,0s0,0,0,0,.13,0,.19-.13h0c.05,0,.1,0,.16,0s0,0,0,0c.15-.14.16-.17.08-.26l.05-.06s0,.11.06.12.26-.18.41-.23,0,0,0,0h0v0h0v0h0l.13,0h0c0-.07.12-.12.18-.16l.14-.09a2,2,0,0,0,.29-.29h0c.15,0,.19-.16.3-.23s0,0,0-.09.08,0,.13,0a.21.21,0,0,1,.11-.14s.12-.06.16-.1a1.33,1.33,0,0,0,.27-.26.41.41,0,0,1,.22-.21.22.22,0,0,0,.06-.07s0,0,.05-.05a.1.1,0,0,0,.06-.07c.09,0,.08-.11.14-.15s.19-.28.37-.34c0-.06.07-.07.11-.1s.07,0,.07-.08.1-.13.17-.19h0a.54.54,0,0,1,.09-.12h0s0,0,0,0h0c.07-.08.17-.13.21-.22h0a.37.37,0,0,1,.23-.23s0-.08,0-.12a.42.42,0,0,0,.27-.31c.07,0,.12,0,.16-.07a1,1,0,0,1,.23-.27h0l.05-.09h0a2.89,2.89,0,0,1,.35-.35.43.43,0,0,0,0-.07c0-.08.06-.1.15-.17s0,0,0-.06a.23.23,0,0,1,.1-.07s.05,0,0-.07l.08-.06a.06.06,0,0,1,0-.06.23.23,0,0,0,.1-.07,2.38,2.38,0,0,1,.39-.45h0l0-.07v0a.18.18,0,0,1,.09,0h0c.05-.12.18-.2.26-.31h0l.23-.23h0l.15-.19.09.22c.08.19.17.38.25.61h0c.07.22.14.46.21.7l-.08.09s0,0,0-.06c-.28.34-.25.21-.53.56,0,0,0,0,0,0l-.13.15v0l-.08.15-.11.07-.05.06c-.19.12-.37.36-.61.54h.06c-.48.57-1.26,1.15-1.9,1.77v0l-.26.27c-.16.12.08-.1,0-.07-.29.28-.1.14-.44.46-.19.14.05-.07.13-.15-.31.3-.79.72-1,.91,0,0,0,0,0,0-.21.2-.51.43-.75.64,0,0,.05-.07.11-.12a3.45,3.45,0,0,0-.28.23l.08-.09a6.77,6.77,0,0,1-.6.48s0,0-.14.14-.43.38-.71.57a1.69,1.69,0,0,1,.16-.14,2.1,2.1,0,0,0-.35.31l0-.05-.61.51c-.11,0-.58.46-.56.4-.23.17.2-.13-.08.09a1.36,1.36,0,0,0-.17.12l-.37-.19s0,0,0,0c-.25-.11-.56-.27-.83-.41h0l.08,0-.08,0h0C340.77,184.48,340.83,184.44,340.84,184.4Zm0-.09h0Zm.13.06s0,0,0,0S341,184.39,341,184.37Zm.42-.35s0,0,0,0h0Zm.08,0v0S341.45,184,341.45,184Zm.15-.19s-.05,0,0-.05A.07.07,0,0,1,341.6,183.84Zm0-.17v0S341.61,183.67,341.6,183.67Zm-.05.27v0h0v0Zm.05-.1h0Zm.11-.12v0h0Zm0,.15s0,0,0,0S341.7,183.85,341.69,183.87Zm.33-.27h0s0,0,0,0h0Zm.41-.3a.08.08,0,0,1-.07.07C342.33,183.31,342.4,183.31,342.43,183.3Zm0,0s0,0,0,0h0S342.44,183.28,342.43,183.29Zm0,.08v0S342.45,183.36,342.44,183.37Zm.11-.09h0S342.54,183.28,342.55,183.28Zm3.51-2.94s0,0,0,.07a.06.06,0,0,1-.06,0A.11.11,0,0,1,346.06,180.34Zm0-.07s0,0,0,0h0Zm2.32-2.65s0,0,0,0h0A0,0,0,0,1,348.38,177.62Zm.13-.16h0Zm.26-.26h0Zm.1.13s0,0,0,0Zm.3-.34s0,0,0,0h0Zm.35-.31h0S349.51,176.68,349.52,176.68Zm1.77-2.47,0,0S351.32,174.21,351.29,174.21Zm.18-.24v0S351.47,174,351.47,174Zm-10.34,13.18h0A0,0,0,0,1,341.13,187.15Zm-3.75,1.16,0,0-.3.2.06,0c-.2.16-.65.38-.5.31-.11.09-.32.24-.35.28l0,0a7.39,7.39,0,0,1-.66-.42c-.33-.22-.62-.47-.92-.71l-.08-.07.06,0h0a.75.75,0,0,0,.34-.13h0l.25-.11a.6.6,0,0,1,.29-.12h0s0,0,0,0h0l.05,0s.07,0,.09,0a.26.26,0,0,1,.12-.09,3.45,3.45,0,0,0,.61-.3.43.43,0,0,1,.18-.06h0a5.18,5.18,0,0,1,.57-.31v0c.11-.05.19-.15.31-.18l0,0s.1,0,.14-.06h0a1.48,1.48,0,0,0,.27-.1l0,0s0,0,0,0,.07,0,.1,0,.05,0,.07,0,.13,0,.19.05h0s.07,0,.11,0h0s0,0,0,0h0c.07,0,.13.08.21.07h0c.08,0,.17,0,.22.09s.06,0,.11,0a.23.23,0,0,0,.29.07c0,.07,0,.1.08.1a.66.66,0,0,1,.26.06l-.36.29v0l-1.22.85.06,0C337.7,188.12,337.7,188.08,337.38,188.31Zm-4.65.28s0,0,0,0S332.72,188.58,332.73,188.59Zm-.21-.41.16.18,0,0C332.47,188.16,332.52,188.21,332.52,188.18Zm.28.36h.07c.16.14.35.29.63.56a.83.83,0,0,1-.28-.23,2.45,2.45,0,0,1-.47-.32Zm2.07-.84h0Zm.15,0h0S335,187.66,335,187.66Zm.06-.1h0v0Zm2.16-1v0S337.24,186.58,337.24,186.59Zm.29-.57s0-.05,0-.07a.1.1,0,0,1,0,.05l0,0S337.54,186,337.53,186Zm.89-.32s0,.06-.06.08h0S338.39,185.72,338.42,185.7Zm.25-.28h0S338.67,185.43,338.67,185.42Zm-.86.81h0Zm.16-.06Zm2.19.21-.09,0a2,2,0,0,0-.56-.16s-.07,0-.08,0-.05-.06-.08-.07l-.27-.08-.46-.16h0a.15.15,0,0,0,.07-.05c0-.05,0,0,0,0s0-.07.07-.09,0,.06.1,0a.89.89,0,0,1,.14-.13c0,.06,0,0,.07,0s.06-.1.13-.1,0-.07.07-.08l0,0c.15-.09.34-.14.44-.31h0l1.33.65C340.7,186,340.42,186.19,340.16,186.38Zm-1.21-.82a0,0,0,0,1,0,0h0Zm0,0v0Zm-.08-.06v.05S338.85,185.53,338.87,185.51Zm0,.05,0,0S338.89,185.58,338.88,185.56Zm.26-.06v0S339.14,185.49,339.14,185.5Zm.14-.25h0s0,0,0,0h0Zm.27-.19v0s0,0-.05,0Zm.05.09s0,0,0-.05Zm0-.05v0h0Zm-.17,0s0,0,0,0h0S339.39,185.14,339.4,185.13Zm1.25-.79a.13.13,0,0,1-.06.07S340.59,184.35,340.65,184.34Zm0-.12a0,0,0,0,1,0,0,0,0,0,0,1,0,0Zm-6,.29h0s0,0,0,0Zm-.11-.13s.05,0,.07,0A.05.05,0,0,1,334.52,184.38Zm0,.07s0,0,0,0Zm.08-.06h0s0,0,0,0S334.61,184.38,334.63,184.39Zm-.35-.17h0s0,0,0,0h0Zm-.16-.19h0Zm0-.12h0ZM334,184h0Zm0,0s0,0,0,0A.1.1,0,0,1,334,184Zm0,.08s0,0,0,0S334,184.05,334,184.06ZM334,184a0,0,0,0,1,0,0,0,0,0,0,1,0,0h0A0,0,0,0,0,334,184Zm-.1-.07s0,0,0,0Zm0-.05h0Zm-.37-.15s0,0,0,0S333.48,183.72,333.47,183.73Zm0-.16h0v0h0Zm0-.1h0S333.51,183.48,333.51,183.47Zm.05-.07s0,0,0,0v0S333.55,183.41,333.56,183.4Zm-.11,0s0,0-.07,0S333.43,183.4,333.45,183.44Zm-.15.08a0,0,0,0,1,0,0h0S333.31,183.52,333.3,183.52Zm0-.27h0Zm-.06.11h0Zm-.34-.19,0,0S332.92,183.15,332.93,183.17Zm0-.13Zm0,.15h0s0,0,0,0S333,183.17,333,183.19Zm-.1-.11h0Zm0-.11h0s0,0,0,0Zm-.08.06h0S332.8,183,332.81,183Zm-.05-.13h0v0c.06,0,.05,0,.09,0S332.77,183,332.76,182.9Zm-.09,0s0,0,0,0l0,0Zm0,0h0Zm0,0,0,0S332.63,182.92,332.65,182.92Zm.08-.14s0,0,0,0S332.73,182.8,332.73,182.78Zm0,.1,0,0,0,0S332.75,182.87,332.77,182.88Zm-.17-.09h0s0,0,0,0Zm-.11,0s0,0,0,0h0Zm-.21,0s0,0,0,0Zm0-.4v0S332.24,182.34,332.25,182.33Zm0,.21,0,0S332.19,182.53,332.21,182.54Zm0,.06a0,0,0,0,1,0,0A0,0,0,0,1,332.16,182.6Zm0,0,0,0h0Zm0,0h0Zm-.22-.35s-.05,0-.08,0S332,182.25,332,182.26Zm-.43-.12,0,0A0,0,0,0,1,331.55,182.14Zm-.09-.14h0Zm-2.18-2.33h0Zm.07.16h0Zm1.95,2.07a.07.07,0,0,0,.05,0h0a1.09,1.09,0,0,0,.13.17.09.09,0,0,0,.07,0h0a.16.16,0,0,1,.06.08h0c.05,0,0,.08.08.12s.13,0,.15.08a.11.11,0,0,0,.07.08c.05,0,0,0,0,0s.06,0,.08,0,0,.06,0,.1a.26.26,0,0,1,.12,0s0,0,0,.06.09,0,.1.06.06,0,.07,0v0c.1.08.17.2.32.21h0a.15.15,0,0,0,.12.11h0l0,0h0c.07,0,.08,0,.1.09s0,.08,0,.09.15.14.26.14.05,0,.07,0a.07.07,0,0,0,0,.06c0,.06,0,.08,0,.11s.08,0,.12,0h0a.15.15,0,0,1,0,.07s0,.05,0,0h0l0,0h0s.06,0,.1,0,0,.06,0,.08.12.11.22.1,0,.07,0,.08h0a.5.5,0,0,0,.28.14h0v.06s.1,0,.14.06a.94.94,0,0,1,.23.16h0l.07.14,0-.07.05,0h0a.19.19,0,0,0,.13.1h0s0,.06.06.08l0,0s0,0,0,0,.06.07.14.09h0c0,.05.05.06.06.1s0,0,0,0,.16.06.22,0h.06s-.09.05-.09.1.19.13.25.22,0,0,0,0h0v0h.06l.05.09h0a.22.22,0,0,1,.16.07l.1.07a1,1,0,0,0,.28.11h0c.05.11.17.08.24.13s0,0,.06,0,0,.06,0,.09a.14.14,0,0,1,.14,0,.87.87,0,0,1,.1.08.82.82,0,0,0,.26.1c.07,0,.16,0,.21.08s0,0,.06,0,0,0,0,0,0,0,.07,0h0l-.16.09c-.35.2-.73.36-1.07.58h-.05l-.71.35c-.25.13-.5.28-.76.39a2.87,2.87,0,0,0-.4.18c-.19-.17-.37-.33-.54-.51v0c-.14-.18-.21-.21-.36-.4h0a10.55,10.55,0,0,1-.92-1.32h0c-.17-.3-.07-.17-.26-.47h0l-.2-.36c.05,0-.38-.89-.43-1.16A9.89,9.89,0,0,1,331.3,181.9Zm.33.33h0S331.63,182.22,331.63,182.23Zm3.07,2.34h0Zm-3.6,1.72.1.19-.12-.16Zm-1.84,2.8a2.79,2.79,0,0,1,.26-.45l-.1.13a1.74,1.74,0,0,1,.3-.45l.13-.27,0,0,0-.05.11-.12c0-.06.25-.39.29-.5s.2-.24.08-.06c.21-.29.43-.58.65-.85l-.11.12s.06-.12.15-.24c.22.36.14.2.45.68,0,0,0,0,0,0,.24.31.53.73.9,1.17l-.08-.08c.14.15.24.23.32.31a3.52,3.52,0,0,1-.51.19,1,1,0,0,0-.22.09,3.12,3.12,0,0,1-.59.19h0s-.05,0,0,.06h0c-.08,0-.16,0-.25.06s-.26.08-.4.12l-.4.14c-.06,0-.1,0-.15,0s-.06,0-.09,0h0a2.42,2.42,0,0,0-.36.1.4.4,0,0,0-.28,0,.59.59,0,0,1-.22,0H329a4.92,4.92,0,0,1,.24-.45S329.29,189,329.26,189.09Zm2.9-.32h0S332.16,188.76,332.16,188.77Zm-.89.32h0Zm-.18,0h0Zm-.78.27h0Zm-.18,0a.08.08,0,0,1,0-.07c.05,0,0,0,0,.05Zm-1,.26h0S329.09,189.65,329.1,189.65Zm5.24.58c-.15.08-.42.25-.42.21-.43.26-.76.47-1.2.7-.09,0-.09.06-.37.17h0a13.79,13.79,0,0,1-2.09.83h0l-.14.06a2.8,2.8,0,0,1-.28.06l-.15,0c-.05,0-.08,0-.12,0h-.13l-.14,0a1.69,1.69,0,0,1-.27-.1.77.77,0,0,1-.48-.68,1.58,1.58,0,0,1,0-.77v0a5.07,5.07,0,0,1,.36-1H329a1,1,0,0,0,.47-.08l.22-.05,0,0,.09,0,.07,0s.09,0,.13,0,0-.05,0-.05h0s.07,0,.1,0h0a2.71,2.71,0,0,1,.38-.06h0a1.09,1.09,0,0,0,.23-.09c.07-.06.15,0,.23-.07s.22-.06.33-.08a4.68,4.68,0,0,0,.48-.18h0c.13,0,.27-.09.4-.12s.26-.11.39-.14.13,0,.17-.1h0l0,0c.16.16.3.3.25.27l.09,0,.31.29c.06,0-.21-.26.07,0s.14.18.2.21a6.8,6.8,0,0,1,.65.47.76.76,0,0,1-.17-.13,4.29,4.29,0,0,0,.48.36A1.38,1.38,0,0,0,334.34,190.23Zm10.3-.48a10.65,10.65,0,0,1-4.41.55c.44,0,.25.08-.08,0a10.79,10.79,0,0,1-2.41-.61l-.34-.13,2.74-1.9c.11-.1.37-.29.57-.44l.23-.13,0,0a.52.52,0,0,1,.16.06h.06l0,0a.07.07,0,0,1,0,.06h0c.11,0,.19.06.29.07h0l.23.08h0a2.88,2.88,0,0,1,.42.11s.08,0,.12,0,.09,0,.13,0a1.52,1.52,0,0,0,.2.06.59.59,0,0,1,.29.07.17.17,0,0,0,.14,0c.06,0,.1,0,.16,0s0,0,0,0h0a1.19,1.19,0,0,0,.32.1c.15,0,.29.1.44.07.08.13.24,0,.31.08h0l0,0a.39.39,0,0,0,.23.07l.18.05c.06-.11.09-.12.16,0h0c0,.09.09.06.14.07h0s0,0,0,0a0,0,0,0,0,0,0h.06c0,.05.06,0,.08,0s0,0,0,.05.05,0,.06,0,.06,0,.09,0l0,0c.05,0,.07.08.13.06v0s.08,0,.12,0,.14,0,.13-.1a.06.06,0,0,1,0-.07s0,.08,0,.11-.06.06,0,.12a.09.09,0,0,1,.1,0s-.06-.08,0-.08h0l0,0h.07a.05.05,0,0,1,0,0h0l0,0c.05,0,.07,0,.07,0h0c.05,0,.1,0,.11.05h0c.1.08.11.07.16,0h0s0,0,0,0h-.08s0-.07,0-.08-.11-.07-.18,0,0,0-.06,0-.11-.07-.17-.07h0a.76.76,0,0,0-.16-.06h0s-.06.05-.09,0a.11.11,0,0,0-.15,0c-.05,0-.13.05-.13-.06a.1.1,0,0,0-.09,0,1.55,1.55,0,0,1-.47-.12.21.21,0,0,0-.11,0h0a.44.44,0,0,0-.27-.07c-.13-.08-.29-.05-.41-.13H344l-.08,0-.5-.12c-.24-.07-.49-.12-.73-.2s-.32-.06-.46-.12h0l-.45-.13-.36-.1.13-.09,0,0c.18-.14.36-.27.52-.41.65.31,1.34.61,2,.92s1.68.68,2.54,1l0,.05s0,0,0,0,0,0,.05,0l.52.18A10,10,0,0,1,344.64,189.75Zm-1.77-2.33h0Zm.2.22h0Zm.35-.16,0,0A0,0,0,0,1,343.42,187.48Zm.22.05s0,0,0,0Zm.09.22h0Zm.09,0s0,0,0,0Zm.22-.13h0Zm.1-.11h0Zm0,.31h0Zm.11,0h0Zm.29.08v0S344.51,187.89,344.51,187.88Zm0-.15s0,0,0,0S344.55,187.74,344.54,187.73Zm0,.15,0,0c0-.06,0,0-.08,0a.11.11,0,0,1,.06-.07A.1.1,0,0,1,344.51,187.88Zm0-.15s0,0,0,0Zm-.05.14h0Zm.28-.22v0h0Zm.07.17s0,0,0,0Zm-.11,0s.06,0,.09,0h0s0,0-.11,0S344.68,187.82,344.7,187.83Zm-.12,0,0,.05C344.56,187.87,344.58,187.84,344.58,187.82Zm.35-.08h0s0,0,0,.05S344.9,187.75,344.93,187.74Zm.09.11,0-.08S345.09,187.85,345,187.85Zm0,.09h0Zm0,0h0Zm0-.13h0Zm.17.09s.05,0,0,.05,0,0-.06,0a.07.07,0,0,1,0-.07Zm0-.15h0a0,0,0,0,1,0,0h0S345.12,187.8,345.12,187.79Zm.08.25h0Zm.08,0v0h0Zm0,0s0,0,0,0Zm0-.08s0,0-.06,0,.05-.06.08-.07S345.34,187.92,345.33,187.93Zm.13.15s-.06,0,0-.08S345.49,188,345.46,188.08Zm0-.11h0a.06.06,0,0,1,0,0Zm.2,0h0Zm0,0s0,0,0,0Zm0,0h0s0,.07-.07.05A.06.06,0,0,1,345.58,188Zm0,0h0Zm.05,0h0S345.64,188,345.63,188Zm.1.06h0Zm0-.15s0,0,0,.05S345.78,187.94,345.78,187.91Zm0,.11h0a0,0,0,0,1,0,0S345.79,188,345.78,188Zm0,0v0S345.75,188,345.74,188Zm.3.1s0,0,0,0Zm6.33-4.17Zm-2.3,4.18a10,10,0,0,0,.93-1.4,6,6,0,0,0,.31-.6c0,.13.37-.41.67-1.14,0-.07-.2.39-.18.26s.13-.32.19-.48,0,0,0,.08l.2-.47.16.08c.19.13,0,.05.23.18h.06l.13.1s.08,0,.23.12h0l.19.11c-.19-.11.16.11.06.08l.42.3,0-.05c.34.26,0,0,.25.26v0a5,5,0,0,1,.82.89c-.12-.17-.11-.11-.11-.11a2.8,2.8,0,0,1,.53,1c0,.06,0,.1,0,.16a1.14,1.14,0,0,1,0,.28c-.05.21-.08.24-.09.31a1.13,1.13,0,0,1-.46.43,1.58,1.58,0,0,1-.29.14h0l0,0a3.61,3.61,0,0,1-1.1.14h.07l-.17,0s0,0,.05,0l-.83,0,.16,0a3,3,0,0,1-.49,0c.34,0-.28,0-.33-.07h.18c-.24,0-.24,0-.22,0-.32-.05-.21-.08-.5-.11l.2,0c.06,0-.09,0-.23,0s-.13,0,0,0c-.25,0-.61-.13-.72-.15s-.09,0,0,0l-.26-.06a3,3,0,0,0,.35-.42C350.47,187.65,350.07,188.15,350.07,188.11Zm1.19-7.15c0,.21,0,.56-.05.81,0,0,0-.19-.09.26,0-.09.07-.28.07-.22a11.85,11.85,0,0,1-.84,2.69,10,10,0,0,1-2,2.84l-.34.33-.3-.09.08,0c-.42-.12-.3-.15-.73-.26,0,0,0,0,0,0l-.2-.06,0,0-.17,0-.11-.07h-.08c-.18-.13-.48-.2-.74-.34l0,0c-.73-.21-1.56-.69-2.4-1l0,0-.35-.12c-.18-.1.11,0,.06,0l-.24-.09c.07-.05.78-.58,1.83-1.43s2.58-2.13,4.08-3.52c.74-.69,1.49-1.43,2.2-2.17a9.56,9.56,0,0,1,.12,2.67Zm-1.67-8.81.17-.15c.2-.12.06,0,.26-.14l0-.05.15-.08c-.06,0,.06-.06.2-.16h0l.18-.12c-.17.13.17-.1.1,0l.45-.25h-.06c.37-.21,0,0,.34-.13l0,0a5.29,5.29,0,0,1,1.15-.38c-.21,0-.15.06-.15.05a3.06,3.06,0,0,1,1.13-.07l.13.07a1.38,1.38,0,0,1,.25.14l.06.05h0a1.72,1.72,0,0,0,.18.16,1,1,0,0,1,.19.59,1.38,1.38,0,0,1,0,.32l0,0,0,0a3.86,3.86,0,0,1-.32,1.07l0-.07-.07.16s0,0,0-.06c-.12.25-.25.5-.38.74l.09-.14a2.76,2.76,0,0,1-.24.44c.14-.31-.15.23-.2.26l.08-.15c-.12.21-.12.21-.09.2-.17.27-.16.16-.31.41l.12-.17c.05,0,0,.09-.1.21s-.09.1,0,0c-.13.21-.37.5-.43.6s-.08.05,0,0c-.27.37-.19.26-.35.46l-.14-.26,0-.14c0-.05-.18-.33-.11-.15l-.09-.18c-.05,0-.13-.25-.34-.6-.05-.09,0-.07,0,0l-.06-.11a.05.05,0,0,0,0,0s0,0,0,0h0a2.42,2.42,0,0,0,.3-.35c.11-.16.29-.29.35-.47s.09-.27.29-.32v0s0,0,0,0a.88.88,0,0,0,.22-.25,1.49,1.49,0,0,0,.17-.18c-.09-.09-.09-.12,0-.18h0c.11,0,.13-.09.18-.15h0s0,0,0,0,0,0,0,0h0a.26.26,0,0,1,0-.08h0c.08,0,.05-.06.06-.09l.05,0s.07-.05.06-.06,0-.08.06-.11l0,0c0-.06.13-.07.15-.14h0s0-.09.08-.14.09-.14,0-.16-.06,0-.06-.06.12,0,.15,0,0,.08.13,0,0-.09,0-.13-.12.06-.07,0h0l0,0h0l0-.07h0c0-.06.05-.07.1-.07h0s0-.12.12-.11h0c.15-.09.16-.11.07-.19h0s0,0,0,0h0l0,0a.09.09,0,0,1,0,.07s-.06,0-.1,0-.15.1-.14.19l-.07.06c-.05.06-.13.1-.17.17h0a.81.81,0,0,0-.16.16h0s0,.08-.07.1a.14.14,0,0,0-.1.16c0,.06,0,.15-.16.13a.26.26,0,0,0-.1.09,2.43,2.43,0,0,1-.42.49l-.08.12h0c-.09.09-.21.17-.24.29s-.23.3-.4.42a.2.2,0,0,0,0,.08h0a.34.34,0,0,0-.09.08l-.42.49s0,0,0,0h0v0l-.18-.28,0-.13-.18-.16c-.19-.25-.25-.37-.39-.58.15.21.41.41,0-.12l.46.54c-.08-.11-.12-.17,0,0-.33-.41-.13-.13-.45-.53.05,0,0-.12-.33-.47l.2.27-.05,0a.6.6,0,0,1,.11.16c-.07-.08-.44-.42-.48-.5.15.22,0,.05-.18-.12l-.05,0,.06-.05Zm2.19,1.27s0,0,0,0h0Zm.07.14h0Zm-.07.38s0,0,0,0h0Zm.09-.12v0S351.86,173.82,351.87,173.82Zm.5-.95a0,0,0,0,1,0-.05A0,0,0,0,1,352.37,172.87Zm0,.23,0,0c-.08,0-.08,0-.08.08a.09.09,0,0,1-.06-.08A.18.18,0,0,1,352.4,173.1Zm.28-.57-.07-.06C352.66,172.46,352.73,172.45,352.68,172.53Zm0-.12,0,0s0,0,0,0h0Zm0,.16v0h0Zm-.24.53s0,0,0,0Zm0-.19s0,0,0,0,0-.07.08-.09h0S352.57,172.87,352.47,172.91Zm.07-.13,0,0S352.55,172.76,352.54,172.78Zm0-.18h0s0,0,0,0S352.5,172.63,352.5,172.6Zm-.06.39s0,0-.06,0Zm-.08.16h0Zm-.25.38h0Zm0-.13h0Zm.12-.37s0,0,0,0S352.26,173,352.25,173Zm0,0s0,0,0,0Zm.06-.25s0,0,0,0,0,0,0,0Zm.65-.53c-.08,0,0-.08,0-.11s0,0,0,0S352.94,172.24,352.94,172.28Zm0,.12s0,0,0,.07a.1.1,0,0,1-.1,0l.06-.06S352.89,172.37,352.92,172.4Zm-.12.21h0S352.81,172.6,352.8,172.61Zm0-.06h0Zm.43-.63h0l0,0Zm0,0h0Zm0,0s.07,0,0,.08,0,0-.05-.07Zm.05-.08s0,0,0,0S353.24,171.86,353.26,171.85Zm0-.09s0,0,0,0Zm0-.06s0,0,.07,0A.09.09,0,0,1,353.22,171.7Zm0,.4s-.07.05-.1,0S353.18,172.05,353.2,172.1Zm-.2.25s0,0,0,0Zm0-.07,0,0v0Zm0,0v0S353.05,172.25,353,172.26Zm0-.14h0a0,0,0,0,1,.05,0S353.06,172.13,353.05,172.12Zm.27-.38s0,0,0,0h0Zm0,0h0Zm.24-.34s0,0,0,0Zm-4.07.73,0,0C349.55,172.14,349.56,172.15,349.52,172.18Zm-.21-.42Zm-5.77-2.67,0,0a1.13,1.13,0,0,0-.18,0Zm-3-.34c.14,0-.29.07.21.06l.09-.06c.2,0-.08,0,.34,0-.23,0,.07.05-.5.05.67,0,1,0,1.56,0h-.12l.47,0c.35,0-.27,0-.18,0a5.21,5.21,0,0,1,.55.08h0a.91.91,0,0,1,.33.06h-.16a11.63,11.63,0,0,0-2.71-.16l-.09-.1Zm-8.5,7.58.15-.31s0,0,0,0a4,4,0,0,0,.24-.47c.1-.17.2-.35.28-.46a1.93,1.93,0,0,0-.23.37c-.16.23-.05,0,.16-.33h0l.12-.23s.18-.2.22-.2a9.06,9.06,0,0,1,2.05-2.24c-.09.08.66-.5.51-.32.55-.42-.12,0,.12-.18a1.35,1.35,0,0,1,.37-.23c-.08.06.15,0,0,0l.39-.24s0,0-.08.07a9.26,9.26,0,0,1,2.33-.94c.06,0-.33.08-.27,0a2.85,2.85,0,0,1,.77-.2l.29-.05.2,0a2.78,2.78,0,0,0,.32-.08l-.22.08.23-.07a.94.94,0,0,0,.26-.14,1,1,0,0,0,.24-.28h0a.94.94,0,0,1-.43.43.91.91,0,0,0,.41-.36l0-.07a10.58,10.58,0,0,1,3.13.31c-.08,0,.17.05.12.06.32.1.65.17,1,.3.09,0-.25-.08-.11,0a2.78,2.78,0,0,0,.39.14,3,3,0,0,1,.65.33,9.18,9.18,0,0,1,.83.41c.06.06-.44-.25-.21-.09s.39.22.57.34a1.08,1.08,0,0,1-.33-.18A10.15,10.15,0,0,1,348.3,173c.23.24.43.49.66.75s.45.54.67.87-.11-.12-.22-.24c.17.23.32.44.44.62l.2.39-.08.08h0c-.14.15-.26.31-.41.46s-.3.35-.46.52-.24.29-.37.43-.37.39-.55.59a2.29,2.29,0,0,1-.21.23,4.14,4.14,0,0,0-.52.6s0,.08-.07.08-.09,0-.12.07-.17.19-.26.29-.3.32-.46.47-.42.41-.61.63-.35.34-.52.5l-.51.49a.83.83,0,0,1-.14.13c-.31.23-.56.5-.84.74l-.62.53a9.31,9.31,0,0,1-.76.62c-.13.09-.23.2-.36.28l-.26.19c-.14.11-.29.23-.44.33s-.17.09-.18.14a3.4,3.4,0,0,0-.64.43h0c-.05,0-.08,0-.11.07h0a.51.51,0,0,0-.16.09,2.79,2.79,0,0,1-.47-.25s0,0-.18-.06-.52-.25-.81-.42l.2.09a3.26,3.26,0,0,0-.43-.2h.05l-.71-.35c-.08-.09-.66-.34-.6-.35-.24-.13.2.13-.11,0-.08-.06-.29-.15-.26-.17l0,0-.22-.12.15.05c-.19-.1-.34-.15-.36-.13-.17-.12-.42-.25-.49-.32l.07,0c-.51-.27-.79-.53-1.2-.72,0,0,0,0,0,0l-.3-.18.08,0-.52-.27h0l-1.28-.77.07,0c-.47-.27-.44-.29-.78-.48h0l-.3-.19.07,0a3.13,3.13,0,0,1-.49-.33c-.13-.06-.35-.19-.4-.2h0a9.81,9.81,0,0,1,.78-2.78ZM325.92,173a1.65,1.65,0,0,1,.71-.28h0a6.06,6.06,0,0,1,1.82-.07s0,0-.05,0a4,4,0,0,1,.51.05l-.16,0a1.81,1.81,0,0,1,.54.08l.3,0,.05,0h.05l.15.06c.07,0,.45.07.58.06s.29.08.08,0l1,.25-.16,0a.9.9,0,0,1,.35.06c-.19.27-.4.57-.59.9l-.08,0c-.08.14-.16.28-.23.42s.17-.33,0,0l-.05.18a5.18,5.18,0,0,0-.27.46c-.09.19-.14.27,0-.11-.15.28-.26.58-.39.87s-.21.59-.32.89,0,.25-.15.69c0,.08,0-.17,0-.13s-.09.31-.12.45l-.11-.06c-.13-.1-.4-.28-.37-.3-.41-.28-.73-.5-1.13-.8,0-.09-.08-.07-.3-.27v0l-.41-.35,0-.07h0c0-.1-.12-.18-.16-.28,0,.05,0,.08,0,.13-.34-.32-.68-.66-1-1v0l-.12-.09c-.06-.08-.11-.16-.16-.24l-.08-.13a.54.54,0,0,1-.05-.11l0-.12a.77.77,0,0,1,0-.15,1.33,1.33,0,0,1,0-.28A.8.8,0,0,1,325.92,173Z"/><path class="cls-1" d="M347.12,187.32l.08,0Z"/><path class="cls-1" d="M353.21,185h0a1.74,1.74,0,0,0-.27-.18Z"/><path class="cls-1" d="M332.43,179.8l.09.06Z"/><path class="cls-1" d="M340.83,184.57l.12.05A.51.51,0,0,1,340.83,184.57Z"/><path class="cls-1" d="M354.22,189.39a1.88,1.88,0,0,0,.38-.15A2.5,2.5,0,0,1,354.22,189.39Z"/><path class="cls-1" d="M329.61,172.83h0Z"/><path class="cls-1" d="M354.24,189.22h0l.07,0Z"/><path class="cls-1" d="M327.34,177.56h0l0,0Z"/><path class="cls-1" d="M328,178.1l-.15-.11Z"/><path class="cls-1" d="M341.51,184.91l.07,0Z"/><path class="cls-1" d="M327.48,183s.06,0,.06,0S327.5,182.94,327.48,183Z"/><polygon class="cls-1" points="327.04 185.46 327.04 185.46 327.04 185.46 327.04 185.46"/><path class="cls-1" d="M327.09,185.44a0,0,0,0,0,0,0Z"/><polygon class="cls-1" points="327.89 185.22 327.89 185.22 327.89 185.22 327.89 185.22"/><polygon class="cls-1" points="326.45 185.34 326.45 185.34 326.45 185.34 326.45 185.34"/><path class="cls-1" d="M326.9,185.45Z"/><path class="cls-1" d="M328.37,184.34c0-.11-.07-.12-.06-.19v0s0,0,0-.06.09-.06.07-.14,0,.05-.06,0v0h0c0-.05,0-.1,0-.1l0-.06,0,0a.11.11,0,0,1,0-.06s0-.06,0-.1,0,0-.05,0,0-.08,0-.1,0-.05,0,0h0c-.05,0-.07,0-.11-.07s0,0,0-.09-.07,0-.1,0,0,0,0-.07h0s-.05-.07-.07-.11h-.06v0s0,0,0,0h0s0,0-.08,0a0,0,0,0,1,0,0s0,0,0,0-.1,0-.07.08,0,0-.05,0v0l0,0s0,0,0,0,.08,0,0-.07.06,0,.08,0,0,0,0,0,0,0-.07,0,0-.05,0-.07l0,0h0s0,0,0,0-.07,0-.07,0,0,0-.06,0a.42.42,0,0,0-.09-.14l0,0s-.05,0-.07-.06,0,0,0,0-.21-.08-.27-.1.06,0,.11,0,0,0-.1,0h0l-.06,0s-.06,0-.07-.06a3.24,3.24,0,0,0-.33.13s-.09,0-.09,0,0,0,0,.07,0,0,0,0,0,0,0,0l0,0s0,0,0,0-.18.09-.24.18,0,0,0,0-.09,0-.14.12v0s0,.06,0,.08,0,0,0-.07-.08.1,0,.09,0,0-.07.06,0,0,0,0a.64.64,0,0,0-.13.18s0,0,0,0-.05,0-.07.12a1.73,1.73,0,0,0-.05.68.39.39,0,0,1,.07.16l0,0,0,0s0,0,0,0h0s0,.13,0,.06l.08.2s.05,0,.07,0,0,0,0,0c.05.16.17.1.24.22h0l.06,0s0,0,0,0,.05,0,.07,0,0,0,.06,0,.08.08.09.13.08,0,.12,0,0,0,0,0l0,0s0,0,0,0,.05,0,.09,0h0l.11,0s0,0,0,0,.05,0,.06,0,0,0,0,0,.07,0,.07,0l0,0c.06,0,0,0,.09,0h0s.09,0,.15,0h0s0,0,0-.05.06,0,.13,0a0,0,0,0,1,0,0s0,.08-.08.09.07,0,.06,0v0h0s0,0,0-.06,0,0,0,0,0,0,.07,0h0s.1,0,.12,0,0,0,0,0h0s0,0,0,0,.05,0,.08,0v0c.07-.09,0,.06.09,0s0,0,0,0,.06,0,.11,0a.09.09,0,0,1,.07,0s.1,0,.1-.07,0,.05-.12,0v0c.05,0,.09-.06.12-.06v0c.05,0,.05-.07.11-.1s0,0,0,0,0,0,.09,0,0,0,0,0l.05,0h0s0,0,.07-.07,0-.12.05-.18,0,0,0,0,0,0,0,0,.08,0,.08,0,0,0,0,0l.05-.06s0,0,0,0a.25.25,0,0,1,0-.07s0,0,0,0a0,0,0,0,0,0-.06s0-.07,0-.06l0,0s0,0,0,0,0,0,0-.06l0,0s0-.05,0-.05,0,0,0,0,0,0,0-.06.07,0,.07,0-.05,0,0-.07,0,0,.07,0a.15.15,0,0,0,0-.13S328.4,184.35,328.37,184.34Zm-.88-.15h0c-.06.06-.05.15-.12.2h0a.06.06,0,0,1,0,.06s0,0,0,0h0a.62.62,0,0,1-.29.07.34.34,0,0,1-.32-.21s0,0,0,0,0-.07,0-.12.06-.12,0-.2h0s0,0,0,0h0s0,0,0,0l0,0s0,0,0,0h0v0s0,0,.06,0,.05-.05.08-.05h.06a.38.38,0,0,0,.35-.23s.05,0,0,.06.05,0,.07,0,0,0,0,0l.05,0s0,0-.05,0,0,.23.06.31,0,0,0,0S327.49,184.14,327.49,184.19Z"/><path class="cls-1" d="M327.91,185.2l0,0a0,0,0,0,1,0,0Z"/><path class="cls-1" d="M326.45,185.34v0S326.46,185.35,326.45,185.34Z"/><polygon class="cls-1" points="327.78 183.14 327.8 183.16 327.8 183.15 327.78 183.14"/><path class="cls-1" d="M328.28,184h0S328.29,184,328.28,184Z"/><polygon class="cls-1" points="327.89 183.17 327.9 183.17 327.91 183.17 327.89 183.17"/><path class="cls-1" d="M327.54,183h0Z"/><path class="cls-1" d="M341.07,176.88s.05,0,.06,0S341.08,176.86,341.07,176.88Z"/><polygon class="cls-1" points="340.63 179.38 340.63 179.38 340.63 179.38 340.63 179.38"/><path class="cls-1" d="M340.68,179.35a.05.05,0,0,0-.05,0Z"/><polygon class="cls-1" points="341.48 179.14 341.47 179.13 341.48 179.14 341.48 179.14"/><polygon class="cls-1" points="340.04 179.26 340.04 179.26 340.04 179.26 340.04 179.26"/><path class="cls-1" d="M340.48,179.37Z"/><path class="cls-1" d="M339.25,178.25a.4.4,0,0,1,.08.16l-.05,0,0,0s0,0,0,0h0s0,.13,0,.06a1.67,1.67,0,0,0,.08.2s.05,0,.06.05,0,0,0,0,.18.1.25.22h0l.06,0c0-.05,0,0-.05-.05s.05,0,.08,0,0,0,.06,0,.08.08.09.13.07,0,.11,0,0,0,0,.05v0s0,0,0,0,0,0,.09,0h0l.1,0h0c0,.05.06,0,.07,0s0,0,0-.05.06,0,.07,0l0,0c.06,0,0,0,.09,0h0c.05,0,.09,0,.15,0h0s0,0,0-.05.07,0,.14,0,0,0,0,0,0,.08-.08.09.06,0,.05,0v0h.05s0,0,0-.06,0,0,0,0,0,0,.08,0h0s.09,0,.11,0,0,0,0,0h0s0,0,0,0,.05,0,.08,0l0,0c.07-.09,0,.06.09,0s0,0,0,0,.06,0,.11,0a.07.07,0,0,1,.06,0s.11,0,.11-.07,0,0-.12,0v0s.09-.06.12-.06,0,0,0,0,.05-.07.1-.1,0,0,0,.05,0,0,.1-.05,0,0,0,.05l.05-.05h0s0,0,.07-.07,0-.12.06-.18,0,0,0,0,0,0,0,0,.08,0,.08,0,0,0,0,0l.05,0s-.05,0,0,0l.05-.07s0,0,0,0,0,0,0-.06,0-.08,0-.06l0,0s0,0,0,0,0,0,0-.06,0,0,0,0,0,0,0,0,0,0,0,0l0-.06s.06,0,.07,0-.05,0,0-.07,0,0,.07,0,0-.09,0-.13,0,0-.05,0-.08-.12-.06-.19v0s0,0,0-.06.09-.06.07-.14,0,.05-.05,0v-.05h0s0-.1,0-.1l0-.06v0s0,0-.05-.06a.1.1,0,0,1,0-.1s0,.05-.05,0,0-.08,0-.1,0,0,0,0h0s-.07,0-.1-.07,0,0,0-.09-.07-.05-.1,0,0-.05,0-.07h0s0-.07-.07-.11h-.05v0s0,0,0,0h0s0,0-.07,0,0,0,0,0,0,0,0-.05-.1,0-.06.08,0,0-.05,0v0l0,0s0,0-.05,0,.08-.05,0-.07h.08s0,0,0,0,0,0-.08,0,0,0,0-.07l0,0h0s0,0,0,0-.07,0-.07,0,0,0-.05,0a.45.45,0,0,0-.1-.14l0,0a.2.2,0,0,0-.07-.06s0,0,0,0-.21-.08-.27-.1.06,0,.12,0,0,0-.1,0h-.06s-.07,0-.07-.05-.21.09-.34.13-.08.05-.08,0,0,0,0,.07,0,0-.05,0,0,0,0,0l-.05,0v0c-.08.08-.19.09-.25.18s0,0,0,0-.09,0-.13.12v0a.07.07,0,0,1,0,.08s0,0,0-.07-.07.1,0,.09-.05,0-.07.05,0,0,0,0a.74.74,0,0,0-.12.17s0,0,0,0,0,0-.06.11A1.8,1.8,0,0,0,339.25,178.25Zm1.15-.33s0,0,0,0h0s0-.05,0-.05l0,0s0,0,0,0h0v0s0,0,.06,0a.11.11,0,0,1,.08,0h.05a.57.57,0,0,0,.22-.07.73.73,0,0,0,.14-.16s.05,0,0,.06,0,0,.07,0,0,0,0,0l0,0s0,0,0,0,0,.23.06.31,0,0,0,0,0,.11,0,.15h0c-.07.06-.06.15-.13.2h0s0,0,0,.06,0,0,0,0h0a.7.7,0,0,1-.3.07.34.34,0,0,1-.31-.21s0,0,0,0,0-.07,0-.12.06-.12,0-.2Z"/><path class="cls-1" d="M341.5,179.12l0,0v0Z"/><path class="cls-1" d="M340,179.26a0,0,0,0,0,0,0S340.05,179.27,340,179.26Z"/><polygon class="cls-1" points="341.36 177.06 341.38 177.08 341.38 177.07 341.36 177.06"/><path class="cls-1" d="M341.87,177.89h0S341.88,177.89,341.87,177.89Z"/><polygon class="cls-1" points="341.48 177.09 341.48 177.09 341.49 177.09 341.48 177.09"/><path class="cls-1" d="M341.13,176.89h0Z"/><path class="cls-1" d="M352.26,191.72s.05,0,.06,0S352.27,191.7,352.26,191.72Z"/><polygon class="cls-1" points="351.82 194.22 351.82 194.22 351.82 194.22 351.82 194.22"/><path class="cls-1" d="M351.87,194.2s0,0-.05,0A.06.06,0,0,0,351.87,194.2Z"/><polygon class="cls-1" points="352.67 193.98 352.66 193.98 352.66 193.98 352.67 193.98"/><polygon class="cls-1" points="351.23 194.1 351.23 194.1 351.23 194.1 351.23 194.1"/><path class="cls-1" d="M351.67,194.22Z"/><path class="cls-1" d="M353.15,193.1c0-.1-.08-.11-.06-.19v0s0,0,0-.06.09-.06.07-.14,0,.05-.05,0v-.05h0s0-.09,0-.1l0,0v0s0,0-.05-.06a.1.1,0,0,1,0-.1s0,.05-.05,0,0-.08,0-.09,0-.05,0,0l0,0s-.07,0-.1-.06,0,0,0-.09-.07-.06-.1,0,0-.05,0-.06h0s0-.08-.07-.12h-.05v0s0,0,0,0h0s0,0-.07,0,0,0,0,0,0,0,0,0-.1,0-.06.07a0,0,0,0,1-.05,0v0l0,0s0,0-.05,0,.08-.05,0-.07a.21.21,0,0,0,.08,0s0,0,0,0,0,0-.08,0,0,0,0-.07l0,0h0s0,0,0,0-.07,0-.07,0,0,0,0,0a.71.71,0,0,0-.1-.14l0,0-.07-.06h0c0-.08-.21-.08-.27-.1s.06,0,.11,0,0,0-.09,0h0l-.06,0s-.07,0-.07-.06-.21.1-.34.14-.09,0-.08,0,0,0,0,.07,0,0-.05,0,0,0,0,0l-.05,0s0,0,0,0-.19.08-.25.17,0,0,0,0-.09,0-.13.12v0s0,.06,0,.09,0-.05,0-.08-.07.1,0,.1,0,0-.06,0,0,0,0,0a.81.81,0,0,0-.12.18h0c0,.06,0,0-.07.11a1.73,1.73,0,0,0-.05.68.4.4,0,0,1,.08.16l0,0,0,0s0,0,0,0h0s0,.14,0,.06a1.19,1.19,0,0,0,.08.2s.05,0,.06.06,0,0,0,0,.18.1.25.22h0l.06,0c0-.05,0,0-.05-.05s.05,0,.08,0,0,0,.06,0,.08.08.09.13.07,0,.11,0,0,0,0,.05h0s0,0,0,0,0,0,.09,0h0l.1,0s0,0,0,0,.05,0,.07,0,0,0,0,0,.06,0,.07,0h0c.05,0,0,0,.09,0h0c.05,0,.09,0,.15,0l0,0s0,0,0,0,.07,0,.14,0,0,0,0,0,0,.07-.08.08.06,0,.05,0v0h.05s0,0,0-.06,0,0,0,0,0,0,.08,0h0s.09,0,.11,0,0,0,0,0h0s0,0,0,0,.05,0,.08,0l0,0c.07-.1,0,.05.09,0s0,0,0,0,.06,0,.11,0,.05,0,.06,0,.11,0,.11-.07,0,.06-.12.05v0l.12-.06h0s0-.08.1-.11,0,0,0,.05,0,0,.1-.05,0,0,0,.05l.05-.05h0s0,0,.07-.07,0-.12.06-.18,0,0,0,0,0,0,0,0,.08,0,.08,0,0,0,0,0l0-.06s0,0,0,0l.05-.07s0,0,0,0,0,0,0-.06,0-.07,0-.06l0,0s0,0,0,0,0,0,0,0,0-.05,0-.05,0,0,0,0,0,0,0,0l0-.07.07,0s-.05,0,0-.06,0-.05.07,0a.14.14,0,0,0,0-.13S353.18,193.11,353.15,193.1Zm-.88-.15h0c-.07.07-.06.15-.13.2h0s0,0,0,.06,0,0,0,0h0c-.08,0-.19.1-.3.07a.34.34,0,0,1-.31-.21s0,0,0,0,0-.07,0-.11.06-.12,0-.21l0,0s0,0,0,0h0s0-.06,0-.06l0,0s0,0,0,0h0v0s0,0,.06,0a.1.1,0,0,1,.08,0v0h0a.58.58,0,0,0,.22-.08.56.56,0,0,0,.14-.16s.05,0,0,.07,0,0,.07,0,0,0,0,0l0,0s0,0,0,0,0,.23.06.31,0,0,0,0S352.27,192.9,352.27,193Z"/><path class="cls-1" d="M352.69,194h0s0,0,0,0Z"/><path class="cls-1" d="M351.23,194.1s0,0,0,0S351.24,194.11,351.23,194.1Z"/><polygon class="cls-1" points="352.55 191.9 352.57 191.92 352.57 191.92 352.55 191.9"/><path class="cls-1" d="M353.06,192.73Z"/><polygon class="cls-1" points="352.67 191.93 352.67 191.93 352.68 191.93 352.67 191.93"/><path class="cls-1" d="M352.32,191.73h0Z"/><polygon class="cls-1" points="346.43 188.16 346.44 188.16 346.44 188.16 346.43 188.16"/><path class="cls-1" d="M346.25,188.23l-.05-.07S346.19,188.23,346.25,188.23Z"/><polygon class="cls-1" points="344.88 188 344.88 188.01 344.88 188.01 344.88 188.01 344.88 188"/><path class="cls-1" d="M344.9,188h0s0,0,0,0S344.91,188,344.9,188Z"/><path class="cls-1" d="M341.25,187.19l-.06,0S341.22,187.19,341.25,187.19Z"/><polygon class="cls-1" points="341.19 187.15 341.19 187.15 341.19 187.15 341.19 187.15 341.19 187.15"/><path class="cls-1" d="M332.1,182.19l0,0h0S332.11,182.2,332.1,182.19Z"/><path class="cls-1" d="M333.54,183.79l0,0S333.51,183.79,333.54,183.79Z"/><path class="cls-1" d="M332.81,183.19v0Z"/><polygon class="cls-1" points="346.75 188.26 346.74 188.27 346.75 188.26 346.75 188.26"/><polygon class="cls-1" points="346.54 188.15 346.55 188.15 346.54 188.14 346.54 188.15"/><polygon class="cls-1" points="346.58 188.2 346.57 188.2 346.58 188.2 346.58 188.2 346.58 188.2"/><path class="cls-1" d="M346.58,188.18v0S346.59,188.19,346.58,188.18Z"/><polygon class="cls-1" points="346.43 188.16 346.44 188.16 346.44 188.15 346.43 188.16"/><path class="cls-1" d="M346.43,188.14h0S346.45,188.14,346.43,188.14Z"/><polygon class="cls-1" points="346.5 188.24 346.51 188.24 346.51 188.23 346.5 188.24"/><polygon class="cls-1" points="346.14 188.17 346.14 188.17 346.14 188.17 346.14 188.17 346.14 188.17"/><path class="cls-1" d="M346.12,188.18h0S346.12,188.17,346.12,188.18Z"/><polygon class="cls-1" points="345.27 188.09 345.28 188.09 345.28 188.09 345.28 188.09 345.27 188.09"/><path class="cls-1" d="M345.26,188.1h0Z"/><path class="cls-1" d="M344.88,188h0S344.89,188,344.88,188Z"/><polygon class="cls-1" points="335.68 185.16 335.68 185.16 335.68 185.16 335.68 185.16"/><path class="cls-1" d="M335.66,185.15v0h0Z"/><polygon class="cls-1" points="333.22 183.09 333.22 183.09 333.22 183.09 333.22 183.09 333.22 183.09"/><polygon class="cls-1" points="337.41 185.99 337.41 185.99 337.41 185.99 337.41 185.99 337.41 185.99"/><path class="cls-1" d="M343.25,187.69h0s0,0,0,0h0Z"/><polygon class="cls-1" points="344.86 188.03 344.87 188.03 344.87 188.03 344.87 188.02 344.86 188.03"/><path class="cls-1" d="M333.2,183.51l0,0h0s0,0,0,0v0h0Z"/><polygon class="cls-1" points="345.43 188.12 345.43 188.12 345.43 188.12 345.43 188.12 345.43 188.12"/><polygon class="cls-1" points="345.58 188.18 345.59 188.18 345.59 188.18 345.59 188.18 345.58 188.18"/><path class="cls-1" d="M333.31,183.64h0v0h0Z"/><polygon class="cls-1" points="334.14 184.23 334.15 184.23 334.15 184.22 334.15 184.22 334.14 184.23"/><rect class="cls-1" x="334.39" y="184.4" width="0.01" height="0.01" transform="translate(142.25 514.41) rotate(-88.66)"/><path class="cls-1" d="M346.15,188.17h0Z"/><polygon class="cls-1" points="335.68 185.16 335.68 185.16 335.68 185.16 335.68 185.16"/><polygon class="cls-1" points="346.59 188.21 346.6 188.22 346.6 188.22 346.6 188.21 346.59 188.21"/><path class="cls-1" d="M346.59,188.21h0S346.58,188.22,346.59,188.21Z"/><path class="cls-1" d="M353.86,171.25l-.11,0S353.82,171.32,353.86,171.25Z"/><path class="cls-1" d="M352.74,172.69v0s0,0,0,0S352.77,172.69,352.74,172.69Z"/><polygon class="cls-1" points="352.77 172.72 352.77 172.72 352.77 172.72 352.77 172.72 352.77 172.72"/><path class="cls-1" d="M349.63,176.55l-.08.06C349.6,176.63,349.61,176.58,349.63,176.55Z"/><polygon class="cls-1" points="349.55 176.61 349.55 176.61 349.55 176.61 349.55 176.61 349.55 176.61"/><path class="cls-1" d="M341.1,184.32l-.05,0A.05.05,0,0,0,341.1,184.32Z"/><path class="cls-1" d="M353.87,171h0S353.88,171,353.87,171Z"/><polygon class="cls-1" points="353.89 171.03 353.89 171.03 353.89 171.03 353.89 171.03 353.89 171.03"/><path class="cls-1" d="M353.66,171.36l0,0Z"/><path class="cls-1" d="M353.73,171.38h0S353.71,171.38,353.73,171.38Z"/><polygon class="cls-1" points="353.73 171.37 353.73 171.36 353.73 171.36 353.72 171.36 353.73 171.37"/><path class="cls-1" d="M353.11,172.32v0S353.09,172.32,353.11,172.32Z"/><polygon class="cls-1" points="353.11 172.3 353.11 172.3 353.11 172.3 353.11 172.3 353.11 172.3"/><path class="cls-1" d="M352.77,172.72v0l0,0S352.78,172.71,352.77,172.72Z"/><path class="cls-1" d="M329.73,189.55h0S329.73,189.57,329.73,189.55Z"/><polygon class="cls-1" points="329.71 189.56 329.7 189.56 329.7 189.56 329.7 189.56 329.71 189.56"/><path class="cls-1" d="M343.92,182.28v0l0,0Z"/><polygon class="cls-1" points="343.95 182.26 343.95 182.26 343.95 182.26 343.95 182.26 343.95 182.26"/><polygon class="cls-1" points="345.94 180.53 345.93 180.53 345.93 180.53 345.93 180.53 345.94 180.53"/><polygon class="cls-1" points="348.99 177.26 348.98 177.26 348.98 177.26 348.98 177.26 348.99 177.26"/><polygon class="cls-1" points="337.25 186.61 337.25 186.61 337.25 186.61 337.25 186.61 337.25 186.61"/><path class="cls-1" d="M330,189.48h0Z"/><polygon class="cls-1" points="330.02 189.46 330.02 189.46 330.02 189.46 330.02 189.46 330.02 189.46"/><path class="cls-1" d="M330,189.46v0Z"/><polygon class="cls-1" points="329.83 189.53 329.84 189.53 329.84 189.53 329.84 189.53 329.83 189.53"/><path class="cls-1" d="M351.41,174.46h0Z"/><polygon class="cls-1" points="337.56 186.43 337.56 186.43 337.56 186.43 337.56 186.43 337.56 186.43"/><polygon class="cls-1" points="352.78 172.75 352.78 172.74 352.78 172.74 352.78 172.74 352.78 172.75"/><polygon class="cls-1" points="353.24 172.13 353.23 172.13 353.23 172.13 353.23 172.14 353.24 172.13"/><polygon class="cls-1" points="353.39 171.98 353.39 171.97 353.39 171.97 353.39 171.97 353.39 171.98"/><path class="cls-1" d="M340.79,184.55h0v0h0Z"/><polygon class="cls-1" points="341.95 183.75 341.96 183.75 341.96 183.75 341.96 183.75 341.95 183.75"/><rect class="cls-1" x="342.3" y="183.51" width="0.01" height="0.01" transform="translate(86.78 476.01) rotate(-77.06)"/><path class="cls-1" d="M353.73,171.35h0Z"/><path class="cls-1" d="M353.71,171.35h0Z"/><g id="Layer_5" data-name="Layer 5"><path class="cls-1" d="M72.57,226.48l-.09-.21a5.53,5.53,0,0,0-5.24-3.76,5.81,5.81,0,0,0-.72.05c-.16,0-.46,0-.55.18a.5.5,0,0,0,0,.34l.18.85a4.26,4.26,0,0,0-2.7,6.06,4.31,4.31,0,0,0,6.61,1.12,4.22,4.22,0,0,0,1.33-3.81c.27-.05.53-.08.79-.15l.17-.05a.39.39,0,0,0,.22-.11.12.12,0,0,0,0-.09h0v0h0v0A.92.92,0,0,0,72.57,226.48Zm-6-3.54a2.85,2.85,0,0,1,.41,0,4.19,4.19,0,0,1,.71,0,5.15,5.15,0,0,1,4.18,2.83.16.16,0,0,0,0,.12c.08.19.17.38.26.56s.07.22.1.32l-.08,0-4.34.92c-.13,0-.29,0-.42.08s-.08-.26-.09-.33l-.93-4.35a.8.8,0,0,1,0-.11h0Zm.67,4.87h0Zm-.28,4a3.87,3.87,0,0,1-3.39-5,3.92,3.92,0,0,1,2.7-2.5l.73,3.44c0,.26.09.48.41.42.52-.1,1-.22,1.55-.33l2.1-.45A3.9,3.9,0,0,1,66.94,231.83Z"/><path class="cls-1" d="M79.47,237.8a.39.39,0,0,0-.1-.19L77.54,229a2.13,2.13,0,0,0-.11-.5c-.21-.48-1-.15-1.33-.07-.55.12-1.11.21-1.66.35-.34.09-.41.33-.35.63l.2.95,1.55,7.31c.13.6.22,1.22.37,1.82l-.57.12-1.44-6.77c-.09-.44-.09-1.2-.72-1.09-.83.15-1.7.3-2.5.53-.58.17-.24,1-.15,1.38l1.42,6.68-.56.12c0-.25-.13-.49-.17-.64l-.5-2.37c-.13-.59-.24-1.19-.38-1.79s-.66-.39-1.1-.29c-.66.14-1.36.22-2,.42s-.27.75-.18,1.13l.9,4.26-4.57,1-4.63-21.81,10.69-2.27.51-.08.67,3.18a1.63,1.63,0,0,0,.14.49c.16.22.39.18.61.13l3.36-.72c0,.14.09.27.11.37l1.26,5.92a.37.37,0,0,0,.73-.16c-.46-2.18-.86-4.39-1.39-6.56a.36.36,0,0,0,0-.11.37.37,0,0,0-.21-.26c-.08-.07-.18-.12-.28-.19l-1.65-1.06-1.89-1.22a9,9,0,0,0-.92-.59h0a.35.35,0,0,0-.24-.06,3,3,0,0,0-.6.11l-11,2.33c-.27.06-.68.08-.71.45a2.37,2.37,0,0,0,.11.58L63,242.48c.06.29.17.55.54.51.21,0,.42-.09.62-.13l4.64-1a3.12,3.12,0,0,0,.53-.11l3.5-.75c.86-.11,1.73-.36,2.59-.55l3.14-.66a.3.3,0,0,0,.38,0l.26-.15.2,0h0a.36.36,0,0,0,.24-.3.93.93,0,0,0,0-.33A3.84,3.84,0,0,0,79.47,237.8ZM72.07,219l2.33,1.5-2.72.58-.57-2.7Zm3,11.48-.2-1,1.91-.41,2.1,9.88-1.91.41Zm-3.48,3.18-.14-.64,1.92-.41,1.53,7.22-1.91.41ZM68,236.49l1.92-.41,1,4.57-1.92.4Z"/><path class="cls-1" d="M83.73,238.16a4.1,4.1,0,0,0-.19-1.22.32.32,0,0,0-.12-.2l-1.92-9.06c-.18-.85-.33-1.71-.55-2.55-.12-.5-.57-.35-.94-.27-.69.14-1.37.27-2.05.43-.37.09-.44.35-.37.68l2.72,12.81c.07.31.18.59.59.52.58-.1,1.15-.24,1.73-.37a.3.3,0,0,0,.38,0l.26-.16.17,0a.35.35,0,0,0,.14-.06l.1-.1h0A.53.53,0,0,0,83.73,238.16ZM81,238.5,78.36,226l1.91-.4,2.67,12.53Z"/></g><path class="cls-1" d="M43.24,50.22l1.4,2.11a.36.36,0,0,0,.07.1l0,.09A12.67,12.67,0,0,0,48,55.86a15.8,15.8,0,0,0,2.56,1.38c-.61.68-1.23,1.35-1.81,2a9,9,0,0,0-.7,10.49,11.8,11.8,0,0,0,4.32,3.89c.64.34,1.32.64,2,.93a17.05,17.05,0,0,0-2.23,2.86c-.19.34-.36.69-.52,1l-.47.11a.25.25,0,0,0,.1.49l.15,0a13,13,0,0,0-.76,4.81c0,.64,1,.69,1,0a14,14,0,0,1,.15-2.43l8.6-1.89.86-.19a13.31,13.31,0,0,1,1.16,2.13c.25.59,1.14.13.89-.46a11.56,11.56,0,0,0-6.55-6.52L56,74.23l.75-.87a12.73,12.73,0,0,0,2.68-4.92A8.93,8.93,0,0,0,57,59.64l.32-.07a.25.25,0,0,0-.11-.49l-.66.14a9.65,9.65,0,0,0-1.1-.8,20.07,20.07,0,0,0-2.65-1.26l-.63-.28c.31-.36.61-.72.9-1.1a12.45,12.45,0,0,0,1.64-2.91.22.22,0,0,0,.07-.2,11.38,11.38,0,0,0,.61-2.27c.16-1,.31-2,.46-3,.1-.63-.9-.68-1,0-.12.83-.25,1.65-.38,2.48l-8.39,1.85-.61.13c-.47-.69-.92-1.39-1.39-2.08C43.77,49.23,42.88,49.69,43.24,50.22Zm15.48,17L50,69.11l-1,.21A7.85,7.85,0,0,1,48,67a.24.24,0,0,0,.17,0l9.07-2,1.3-.29a.21.21,0,0,0,.17-.14A7.15,7.15,0,0,1,58.72,67.18Zm-.85,2.7-7,1.54a9.94,9.94,0,0,1-.89-.83c-.25-.26-.48-.54-.7-.82l8.5-1.88.8-.18A10.32,10.32,0,0,1,57.87,69.88Zm.52-5.61-9.06,2L48,66.55a.25.25,0,0,0-.15.11,7.44,7.44,0,0,1-.12-2.52l8.82-2L57.64,62a7.8,7.8,0,0,1,1,2.37A.19.19,0,0,0,58.39,64.27Zm-9.69-.85-.87.19a8.12,8.12,0,0,1,.68-2.09l7.34-1.62a8.48,8.48,0,0,1,1.5,1.61Zm3.84,17.4-.63.14a10.44,10.44,0,0,1,.69-2.16l6.3-1.39.53-.11A10.92,10.92,0,0,1,61,79ZM58,76.24c.33.2.65.42,1,.65l-6.07,1.34c.05-.08.09-.16.13-.24a14.75,14.75,0,0,1,1.94-2.51l.4-.47A22.63,22.63,0,0,1,58,76.24Zm-1.86-3.63-1,1.2a19.75,19.75,0,0,1-3.64-2l6.16-1.36A12.2,12.2,0,0,1,56.12,72.61Zm-2-13.81a7.92,7.92,0,0,1,1.24.7l-6.11,1.35-.39.09a7.35,7.35,0,0,1,.63-.91c.65-.82,1.37-1.59,2.07-2.37Zm-1.39-4.16a17.69,17.69,0,0,1-1.41,1.82l-.84-.38a11.34,11.34,0,0,1-2.64-1.65l5.72-1.26A11.8,11.8,0,0,1,52.69,54.64ZM54,50.49l.43-.1a10,10,0,0,1-.65,2.21L47.33,54a10.41,10.41,0,0,1-1.52-1.73h0Z"/><path class="cls-1" d="M316.93,73.74,309.3,74a.2.2,0,1,0,0,.39l7.63-.23a.2.2,0,0,0,0-.39Zm.08,2.51-7.64.23a.2.2,0,0,0,0,.39l7.64-.23a.2.2,0,0,0,0-.39Zm.07,2.51-7.63.23a.2.2,0,0,0,0,.4l7.64-.24c.25,0,.23-.4,0-.39Zm.08,2.59-7.63.24a.2.2,0,0,0,0,.39l7.63-.23a.2.2,0,0,0,0-.4Zm.08,2.52-7.64.23a.2.2,0,0,0,0,.39l7.64-.23a.2.2,0,0,0,0-.39Z"/><path class="cls-1" d="M324.14,88.68l-.64-21.12c0-.33,0-.65-.47-.69s-.65,0-1,0l-13.28.41c-.31,0-.64,0-.95,0s-.43.33-.42.64l.06,2h-.4c-.48,0-1,0-1.44,0s-.66.43-.65.87l.52,17-3,.09h-.35c-.47.07-.47.45-.46.82l.05,1.63a2.92,2.92,0,0,0,.2,1.24,2,2,0,0,0,2,.89l13.56-.41,1.56,0a4.68,4.68,0,0,0,1.4-.11,1.71,1.71,0,0,0,1.19-1.61c0-.32,0-.64,0-1l1.88-.06c.32,0,.61-.07.64-.46a1.28,1.28,0,0,0,0-.19ZM308.22,67.82m-.28.31-5.45,20.33v0S302.51,88.42,302.49,88.46Zm6,3.14-4.41.13a2.12,2.12,0,0,1-1.17-.14,1,1,0,0,1-.39-1l-.06-1.93,3.32-.1a.31.31,0,0,0,.28,0l1.93-.06,8.36-.18,1.89-.06.06,1.83a2.15,2.15,0,0,0,.19,1l.1.17-.95,0C314.59,91.4,311.54,91.5,308.49,91.6Zm10.06-3.37h0s.06,0,0,0Zm-.32-.25h0s0,0,0,0Zm2.64,2.18a1,1,0,0,1-.53,1l-.22.07a1,1,0,0,1-1-1l0-1.54c0-.33.1-1-.24-1.17-.17-.1-.38-.06-.56-.13l-.8,0c-1.1.1-3.29.17-3.29.17l-7.87.25-.51-16.67c0-.05,0-.17,0-.29H306l12-.37c.76,0,1.53-.07,2.29-.07l.53,17.52s0,.57,0,.86a.44.44,0,0,0,0,.47c0,.3,0,.6,0,.9Zm1.55-1.58-.78,0c0-.34,0-.68,0-1l-.53-17.23c0-.38,0-.78-.52-.81s-.86,0-1.27,0l-10.95.33-.05-1.8,14.44-.44.63,20.88-.93,0Zm.95.26h0C323.39,88.91,323.34,88.92,323.37,88.84Zm.29-.3"/><path class="cls-1" d="M383.43,33.45a2.6,2.6,0,0,0-.89-1.06A2.77,2.77,0,0,0,380,32.1l-2.67,1.06a.47.47,0,0,0,.06-.09.32.32,0,0,0,0-.27l-1.21-3a.35.35,0,0,0-.45-.2l-4.12,1.64a.34.34,0,0,0-.19.45l1.21,3.06a.34.34,0,0,0,.3.21l-.64.25-2.2.88a2.7,2.7,0,0,0,1.46,5.18,5.44,5.44,0,0,0,.86-.29l8.24-3.27a.31.31,0,0,0,.31,0,9.73,9.73,0,0,0,1.81-.79,2.73,2.73,0,0,0,1-3.23.31.31,0,0,0-.32-.21Zm-10.27.7-1-2.38,3.48-1.38.94,2.38Zm.07,5.71a12.73,12.73,0,0,1-1.72.66A2,2,0,0,1,369.74,37a7,7,0,0,1,1.81-.84l6.88-2.73c.6-.24,1.2-.49,1.8-.72a2,2,0,0,1,1.5,3.73Z"/><path class="cls-1" d="M372.2,38a1.15,1.15,0,0,0-2.13.89,1.16,1.16,0,0,0,1.51.65,1.18,1.18,0,0,0,.66-1.45A.36.36,0,0,0,372.2,38Zm-1.8.77a.81.81,0,0,1,1.5-.6A.81.81,0,0,1,370.4,38.81Zm3.2-2.43a1.16,1.16,0,0,0-.06,2.31,1.17,1.17,0,0,0,1.21-1.1v-.05a1.17,1.17,0,0,0-1.15-1.16Zm0,2a.81.81,0,1,1-.1-1.61h.07a.81.81,0,0,1,0,1.61Zm1.47-2.46,0,0,0,.05A1.15,1.15,0,0,0,377,37.21a1.15,1.15,0,0,0-1.88-1.33Zm1.6,1.12a.81.81,0,0,1-1.36-.87.81.81,0,1,1,1.36.87Zm1.42-2.51,0,0h-.05A1.17,1.17,0,0,0,377.4,36a1.15,1.15,0,0,0,2.17-.79,1.17,1.17,0,0,0-1.43-.7Zm.61,1.87a.81.81,0,0,1-.53-1.53.81.81,0,0,1,.53,1.53ZM382,34.27a1.16,1.16,0,1,0-.83,1.45h0A1.18,1.18,0,0,0,382,34.27Zm-.33.13a.82.82,0,0,1-.56,1,.83.83,0,0,1-1-.49.81.81,0,1,1,1.51-.56A.08.08,0,0,1,381.71,34.4ZM369,21.88l-1.62-4.08a.35.35,0,0,0-.64.26l1.62,4.08A.35.35,0,0,0,369,21.88Zm2.89-1-1.68-4.24a.34.34,0,0,0-.64.25l1.68,4.24A.34.34,0,0,0,371.92,20.92Zm-2.15.21-1.46-3.69a.17.17,0,0,0-.32.13l1.46,3.69C369.53,21.46,369.86,21.34,369.77,21.13Zm-1.1,4.19a2.77,2.77,0,1,0,1.49-3.63,3.21,3.21,0,0,0-.45.24,2.82,2.82,0,0,0-1.08,3.3l0,.05S368.66,25.3,368.67,25.32Zm1.16-2.61a2.08,2.08,0,1,1,1.81,3.59,2.09,2.09,0,0,1-1.81-3.59Z"/><path class="cls-1" d="M369.72,33.68a.36.36,0,0,0,.4.11l.63-.25a.34.34,0,0,0,.19-.45l-1.56-3,1.25-2.57c.19-.4-.45-.67-.64-.27l-1.24,2.57c-.15.3,0,.48.11.75.27.52.54,1,.82,1.56l.46.89h0l-2.61-3.24,1.43-3.4a.34.34,0,0,0-.63-.27c-.51,1.2-1,2.39-1.51,3.59a.32.32,0,0,0,0,.34l2.9,3.61Zm4.58-9.4,3.37,1.49.33,4.15h0c-.23-.82-.46-1.64-.7-2.47-.08-.28-.1-.63-.38-.77-.45-.21-.94-.35-1.39-.53l-1.38-.52c-.41-.16-.69.47-.27.63l2.66,1,.92,3.23a.33.33,0,0,0,.44.19l.63-.24a.35.35,0,0,0,.21-.36l-.36-4.61a.32.32,0,0,0-.21-.27l-3.55-1.58A.34.34,0,0,0,374.3,24.28Z"/><path class="cls-1" d="M149.5,201.64c-2.72.6-5.42,1.32-8.11,2.05q-10.17,2.79-20.11,6.34a235.25,235.25,0,0,0-25.64,10.8,142.66,142.66,0,0,0-25.08,15.54c-7.22,5.7-13.84,12.45-18.37,20.52-.54,1-1,1.93-1.51,2.92-.21.43.43.81.64.38,4-8.3,10.22-15.29,17.2-21.19A131.75,131.75,0,0,1,93.11,223a224.41,224.41,0,0,1,25.94-11.32q10.23-3.75,20.73-6.71c2.21-.62,4.43-1.22,6.66-1.78a19.17,19.17,0,0,0,3.12-.75.7.7,0,0,1,.14,0c.47-.1.27-.83-.2-.72Z"/><path class="cls-3" d="M268.69,92.71l0,0S268.67,92.73,268.69,92.71Z"/><path class="cls-3" d="M269.64,91.26h0Z"/><path class="cls-3" d="M269.23,91.81l0,0Z"/><path class="cls-3" d="M269.19,91.88v0Z"/><path class="cls-3" d="M268.17,93.44s-.1.11-.09.12S268.17,93.47,268.17,93.44Z"/><path class="cls-3" d="M259.44,102.13v0Z"/><polygon class="cls-3" points="262.71 100.41 262.71 100.41 262.71 100.41 262.71 100.41"/><path class="cls-3" d="M262.71,100.41a.28.28,0,0,0,.05-.11A.27.27,0,0,0,262.71,100.41Z"/><polygon class="cls-3" points="264.04 98.75 264.04 98.75 264.04 98.75 264.04 98.75"/><polygon class="cls-3" points="261.85 101.56 261.85 101.55 261.85 101.56 261.85 101.56"/><path class="cls-3" d="M262.58,100.62c0-.05.08-.12.08-.09l0,0,.07-.08s-.08,0,0,0,.07,0,.06,0,0-.07.11-.17l0,0c.07-.07.14-.19.19-.19s0,0,0,0h0c0,.09,0,0,0,0a.74.74,0,0,1,.12-.16h0c.07-.21,0,0,.16-.13s0,0,0,0a1.93,1.93,0,0,0,.16-.19s.09-.07.11-.06.16-.18.17-.23-.06.12-.19.22v0a3.11,3.11,0,0,1,.2-.25s0,0,0,0a3,3,0,0,1,.2-.29s0,.07-.07.12.07-.08.17-.19-.07.08-.06.1l.1-.13h0s.08-.1.13-.18a1.25,1.25,0,0,0,.2-.37s0,0,0,0,0,0,0,.06.14-.12.12-.08,0,0,0,0l.11-.14s-.07.05,0,0l.14-.17s0,0,0,0,.09-.09.09-.12.1-.16,0-.11l.08-.08s0,0,0,.06.05-.08.07-.11l.11-.1s.07-.1.1-.1,0,0,0,0l.11-.14s.06,0,.05,0,0-.05,0-.12.1-.09.08,0a1.18,1.18,0,0,0,.2-.23c0-.06-.07.07-.09,0,.16-.2.11-.26.24-.4l0,0a.46.46,0,0,0,.08-.16s.15,0,.26-.21-.09.07-.09,0l.08-.1s0,0,0,0,.17-.14.16-.19l.11-.06-.05,0s.08-.12.09-.15a.66.66,0,0,1,.17-.19s-.09,0,0,0,.15-.16.17-.14.08-.08.07-.1l0,0s.07-.15.13-.24.08-.11.15-.11.12-.18.1-.21.08,0,.11,0v0a2.24,2.24,0,0,0,.22-.22l0-.1h0s.05-.08,0,0l0,0s0-.06.09-.15,0,0,0,0,0,0,.06,0,.06-.19,0-.09,0-.07.06-.11h0v-.07c0-.06.08-.07.12-.12s0,.15.07,0a.78.78,0,0,0-.08.16s0,0,0,0a1.19,1.19,0,0,1,.09-.15s.05,0,.13-.08l-.07.06a0,0,0,0,1,0,0s0,0-.05,0,.06-.14.09-.14c-.12.07.11-.2,0-.16s.05-.08.07-.08.08,0,.09,0-.08.06-.05,0a.47.47,0,0,1,.11-.1v0l.07-.06s-.08,0,0,0,.07-.09.08-.08,0,0,0,.1.16-.21.08-.17l.05,0s-.14.11-.05,0h0l0-.1,0,0s0,0,0,0,0,0,.05,0,0-.09,0-.11.06-.06.06,0a1.46,1.46,0,0,1,.2-.22c.06-.1,0,0,0-.06s.26-.29.37-.45c-.07,0,0,0,0-.09s.13-.12.05,0l0-.08c.07,0-.08.15,0,.08s.05-.1.07-.13a2.2,2.2,0,0,0,.09-.21s0,0,0,0,0-.07,0,0a.36.36,0,0,1,0,.14v0a.48.48,0,0,0,0-.17s0,0,0,0,0,0-.05-.08,0-.13,0-.15,0,0,0,0a.4.4,0,0,0-.09-.17.3.3,0,0,1,.07.14s0,0,0,0,0-.11-.08-.17a.38.38,0,0,0-.13-.09.53.53,0,0,1,.09.11l0,.07a.35.35,0,0,1,.05.2l0,0a.21.21,0,0,1,0,.13c0-.1,0,0,0,0s0,.1,0,.15,0-.09-.08,0l0,0s0,0,0,0,0,0,0,.05,0,0,0,0a.37.37,0,0,1,0-.09l-.07.09a.22.22,0,0,0,0,.08,1.3,1.3,0,0,1-.08.17s0,0,0,0a.53.53,0,0,1-.06.1c-.06.06,0-.07,0-.06l-.08.12h0s0,.06-.05.06,0,0,0,0l.3-.4,0,0a.49.49,0,0,0-.09-.69.51.51,0,0,0-.69.09l-.13.17s0,0,0,0l-.16.2s0-.06,0,0,0,.07-.06.09-.11.15-.13.12c-.13.12,0,.08-.13.2s.08-.1,0-.06l-.1.13s0,0,0-.09a9.57,9.57,0,0,0-.77.81c-.05,0,0,0,0-.08-.16.25-.3.29-.45.5h0c-.27.24-.5.6-.77.9l0,0a.87.87,0,0,1-.11.18s0-.06-.07,0l.06,0c-.25.24-.69.82-1.06,1.25-.46.61-1,1.24-1.46,1.84.07-.09.08,0,0,0-.21.14-.25.33-.44.49-.25.36-.54.62-.75,1h0c0,.05,0,.07-.08.12h0c-.1.12-.2.28-.26.34l0,0c-.06.07-.05,0-.09.1h0l-.05.1s-.16.2-.22.24a2.79,2.79,0,0,1-.3.41s-.17.19-.27.29-.39.52-.6.78h0l-.05.07a0,0,0,0,1,0,0c-.07,0-.12.17-.18.21s0,0,.08-.08,0,0,0,.09h0l0,.07s-.06,0-.09,0c-.17.23-.27.42-.46.64,0,0-.13.18-.13.1-.1.15.05,0,0,.09s0,.08-.07.08,0,0,0,0l-.08.1s0,0,0,0c-.13.21-.3.32-.41.51,0,0,.05-.06.06,0-.12.19-.15.14-.26.32v0a.41.41,0,0,1-.12.17s0-.08.07-.13-.16.21-.11.18-.09.09-.12.13.06-.06,0,0l-.07.08,0,.06-.05.09a.94.94,0,0,0-.08.39s0,0,0,0a1.06,1.06,0,0,1,0,.2.5.5,0,0,0,.09.25.84.84,0,0,0,.23.23.86.86,0,0,0,.28.11.85.85,0,0,0,.62-.09,1,1,0,0,0,.24-.21l.11-.15.22-.28a1.28,1.28,0,0,1,.2-.32h.05l.06-.1s-.05.08,0,0v0s.19-.23.1-.06l.28-.36c.06-.07,0-.07.09-.15s0,0,0,0c.23-.24.17-.35.38-.59l0,0s.09-.13.09-.14,0,.06-.1.12.06-.1,0-.12a.67.67,0,0,0,.11-.14,2,2,0,0,1,.24-.25.63.63,0,0,1,.1-.21c.07-.05,0,0,.09-.05v0c.06-.07.06,0,.06,0s0-.08.12-.17l0,.07a2,2,0,0,1,.16-.2.45.45,0,0,1-.05.08c.07,0,.06-.11.08-.13s-.07.07-.06,0,.06-.12.11-.14l0,.06a.68.68,0,0,1,.13-.18s0,0,0,0a1.56,1.56,0,0,1,.22-.28v0s0-.08.05-.11-.05,0-.07,0,.07-.15.19-.27,0,0,0,.08A.33.33,0,0,1,262.58,100.62ZM269.09,92h0l0,0Z"/><path class="cls-3" d="M263,100h0Z"/><path class="cls-3" d="M264,98.79l0-.08,0,0S264.05,98.76,264,98.79Z"/><path class="cls-3" d="M262.28,101v0S262.28,101,262.28,101Z"/><path class="cls-3" d="M261.88,101.55s0,0,0,0S261.86,101.56,261.88,101.55Z"/><path class="cls-3" d="M265,97.4s0,0,0,0Z"/><path class="cls-3" d="M267.67,94l0,0S267.66,94,267.67,94Z"/><path class="cls-3" d="M264.37,98.25a.05.05,0,0,0,0,0S264.37,98.26,264.37,98.25Z"/><polygon class="cls-3" points="267.61 94.09 267.57 94.14 267.57 94.14 267.61 94.09"/><path class="cls-3" d="M267.91,93.77l-.05.06Z"/><path class="cls-3" d="M266,96.05h0S266,96.08,266,96.05Z"/><polygon class="cls-3" points="267.48 94.33 267.47 94.34 267.46 94.36 267.48 94.33"/><path class="cls-3" d="M268.08,93.56s0,0,0,0l0,0Z"/><path class="cls-3" d="M266.66,95.33v0S266.64,95.33,266.66,95.33Z"/><path class="cls-3" d="M272.6,99.36l-.05,0Z"/><path class="cls-3" d="M273.86,98.18h0Z"/><path class="cls-3" d="M273.33,98.62l0,0Z"/><path class="cls-3" d="M273.28,98.67v0A0,0,0,0,0,273.28,98.67Z"/><path class="cls-3" d="M271.92,100s-.12.09-.11.1S271.91,100,271.92,100Z"/><path class="cls-3" d="M261.41,106.37l0,0Z"/><polygon class="cls-3" points="264.99 105.46 264.99 105.46 264.99 105.46 264.99 105.46"/><path class="cls-3" d="M265,105.46a.34.34,0,0,0,.08-.09A.34.34,0,0,0,265,105.46Z"/><polygon class="cls-3" points="266.67 104.16 266.67 104.16 266.67 104.16 266.67 104.16"/><polygon class="cls-3" points="263.89 106.37 263.89 106.37 263.89 106.37 263.89 106.37"/><path class="cls-3" d="M265.4,105.16h0Z"/><path class="cls-3" d="M261.89,108l0,0L262,108s-.07.06,0,0l0,0s.24-.18.11,0l.35-.28c.08-.06,0-.07.12-.13s0,0,0,0c.29-.18.25-.3.51-.48l0,0a1,1,0,0,0,.11-.11s0,.05-.12.09.08-.09.06-.11.09-.08.14-.12a2.59,2.59,0,0,1,.29-.18.7.7,0,0,1,.15-.18c.08,0,0,0,.09,0v0c.07-.05.06,0,.07,0s0-.07.15-.14l0,.06.19-.16s0,0-.06.06.08-.08.11-.1-.08,0-.06,0,.08-.11.13-.12l0,.06a.78.78,0,0,1,.16-.15s0,0,0,0,.17-.13.28-.22l0,0s.05-.07.08-.09-.06,0-.08,0,.1-.14.25-.23,0,0-.06.07,0,.1-.08.18.1-.1.1-.08v0l.08-.06s-.09,0,0,0,.06,0,.07,0,0-.06.13-.14,0,0,0,0,.18-.16.23-.14,0,0,0,0h0c-.06.08,0,0,.06,0s.1-.09.14-.12h0c.12-.19,0,0,.18-.09s0,0,0,0a.92.92,0,0,0,.2-.14s.1-.05.13,0,.19-.14.21-.19-.09.11-.23.18v0a2.7,2.7,0,0,1,.25-.2s0,0,0,0,.14-.15.26-.24,0,.06-.09.1.08-.06.2-.15-.08.06-.08.09l.13-.11h0s.1-.08.18-.15a1.33,1.33,0,0,0,.27-.32h0c-.06,0,0,0-.05,0s.16-.08.14,0-.05,0,0,0l.14-.11s-.08,0,0,0l.16-.13s0,0,0,.05.1-.07.11-.11.13-.12.05-.09l.1-.06-.05,0s.07-.06.1-.09l.12-.08a.52.52,0,0,1,.12-.07s0,0,0,0l.14-.1s0,0,0,0,0,0,.07-.11.12-.07.07,0a.94.94,0,0,0,.26-.18s-.09,0-.1,0c.2-.17.16-.23.32-.34l0,0a.79.79,0,0,0,.11-.14s.16,0,.3-.14-.1,0-.09,0l.1-.09s0,0,0,0,.19-.1.19-.15l.12,0h-.05a1.36,1.36,0,0,1,.12-.12.38.38,0,0,1,.21-.14s-.09,0,0-.06.18-.12.19-.09.1-.06.09-.08l0,0s.1-.14.18-.21.1-.09.17-.08.16-.14.15-.18a.1.1,0,0,1,.11,0l0,0a1.58,1.58,0,0,0,.26-.17l.05-.08h0s.06-.07,0,0l0,0s.05,0,.12-.13,0,0,0,0,0,0,.07,0,.1-.16,0-.09,0-.07.08-.09h.05l0-.07c.06,0,.1,0,.15-.09s-.07.14.06,0a1.11,1.11,0,0,0-.12.13s0,0,0,0,0,0,.12-.13,0,0,.14,0l-.08,0s0,0,0,0l-.05,0s.09-.13.12-.12c-.13,0,.15-.17.07-.15s.07-.07.09-.06.09,0,.09,0-.09,0-.05,0a.28.28,0,0,1,.13-.07l0,0,.09,0s-.09,0,0,0,.09-.07.1-.06,0,.05,0,.1.21-.17.13-.14l.06,0c-.05,0-.17.09-.05,0h0l.07-.09h.05s0,0,0,0h.05c.09-.07.08-.07.08-.09s.07,0,.06,0A1.59,1.59,0,0,1,273,99c.08-.08,0,0,0-.05a1.6,1.6,0,0,0,.46-.35c-.07,0,0,0,0-.09s.15-.08,0,0l.08-.06c.07,0-.12.12,0,.08a.35.35,0,0,0,.1-.12.94.94,0,0,0,.14-.18s0,0,0,0,0-.06,0,0a.25.25,0,0,1-.06.13l0,0a.43.43,0,0,0,.06-.15s0,0,0,0,0,0,0-.08a.52.52,0,0,1,0-.15s0,0,0,0a.38.38,0,0,0-.05-.19.25.25,0,0,1,0,.16s0,0,0,0a.26.26,0,0,0,0-.18.22.22,0,0,0-.11-.12.57.57,0,0,1,.07.13.25.25,0,0,1,0,.07.35.35,0,0,1,0,.21.05.05,0,0,1,0,0s0,.06,0,.13c0-.09,0,0,0,0s0,.09-.06.13,0-.09-.08,0,0,0,0,.05,0,0,0,0,0,0-.06,0a.05.05,0,0,0,0,0s0,0,.06-.08l-.1.07-.06.07a1.58,1.58,0,0,1-.12.15l0,0-.08.09c-.08,0,0-.06,0-.06l-.11.09h0s0,0-.07,0a.08.08,0,0,0,0,0l.39-.32,0,0a.49.49,0,0,0,.08-.69.5.5,0,0,0-.69-.07l-.18.13s0,0,0,0l-.19.16s0-.05,0,0-.05.06-.07.07-.15.12-.17.09,0,.08-.17.16.1-.08,0,0l-.12.11a.08.08,0,0,1,.05-.08,10,10,0,0,0-.93.6c-.06,0,0,0,.05-.07a4.27,4.27,0,0,1-.56.38v0a10.77,10.77,0,0,0-.95.69l0,0a.71.71,0,0,1-.15.15s0-.06-.07,0l.06,0c-.3.18-.86.64-1.32,1s-1.26,1-1.84,1.44c.09-.07.08,0,0,0s-.31.27-.53.38c-.33.29-.68.48-1,.77h0c-.05,0-.05.05-.1.1h0c-.12.09-.25.22-.32.26v0c-.07,0,0,0-.11.08h0l-.07.08s-.2.16-.27.18a3.78,3.78,0,0,1-.39.34,2,2,0,0,0-.32.21l-.77.62h0l-.07.06s0,0,0,0-.16.13-.23.16.05,0,.09-.06,0,0,0,.08h0l0,.05s-.07,0-.09,0c-.23.18-.36.34-.6.52,0,0-.17.13-.15.06-.13.13.05,0,0,.09s-.07.07-.09.06-.05,0,0,0l-.09.08s0,0,0,0c-.18.17-.36.24-.52.4,0,0,.07,0,.07,0-.16.17-.18.1-.33.25l0,0a.41.41,0,0,1-.15.14s.06-.07.1-.12-.21.18-.15.16a.52.52,0,0,1-.15.09s.08,0,0,0l-.08,0h0l0,0-.08.07a.89.89,0,0,0-.16.36s0,0,0,0a1,1,0,0,1,0,.2.59.59,0,0,0,0,.27.9.9,0,0,0,.17.26.76.76,0,0,0,.25.18.83.83,0,0,0,.62.06,1.06,1.06,0,0,0,.28-.15l.15-.12c.1-.08.19-.16.28-.22A1.15,1.15,0,0,1,261.89,108Zm11.27-9.27h0l0,0Z"/><path class="cls-3" d="M266.66,104.19l.06-.07-.05,0S266.68,104.17,266.66,104.19Z"/><path class="cls-3" d="M264.45,105.9l0,0Z"/><path class="cls-3" d="M263.92,106.37s0,0,0,0Z"/><path class="cls-3" d="M268,103.07s0,0,0,0S268,103.07,268,103.07Z"/><path class="cls-3" d="M271.3,100.38l0,0S271.3,100.39,271.3,100.38Z"/><path class="cls-3" d="M267.11,103.74l0,0S267.11,103.75,267.11,103.74Z"/><polygon class="cls-3" points="271.23 100.45 271.18 100.49 271.18 100.5 271.23 100.45"/><path class="cls-3" d="M271.59,100.21l-.06.05Z"/><path class="cls-3" d="M269.25,102h0S269.23,102,269.25,102Z"/><polygon class="cls-3" points="271.04 100.66 271.03 100.66 271.02 100.68 271.04 100.66"/><path class="cls-3" d="M271.81,100.05l0,0,0,0Z"/><path class="cls-3" d="M270,101.44v0S270,101.43,270,101.44Z"/><path class="cls-3" d="M270,108.38s0,0,0,0Z"/><path class="cls-3" d="M271.13,107.64h0Z"/><path class="cls-3" d="M270.67,107.89s0,0,0,0S270.68,107.9,270.67,107.89Z"/><path class="cls-3" d="M270.63,107.93l0,0S270.63,107.92,270.63,107.93Z"/><path class="cls-3" d="M269.42,108.8s.09,0,.09-.06S269.41,108.79,269.42,108.8Z"/><polygon class="cls-3" points="263.8 111.96 263.8 111.96 263.8 111.96 263.8 111.96"/><path class="cls-3" d="M263.8,112a.2.2,0,0,0,.07-.06A.14.14,0,0,0,263.8,112Z"/><polygon class="cls-3" points="265.19 111.21 265.19 111.21 265.19 111.21 265.19 111.21"/><polygon class="cls-3" points="262.9 112.51 262.9 112.5 262.9 112.51 262.9 112.51"/><path class="cls-3" d="M264.14,111.79h0Z"/><path class="cls-3" d="M271.25,107.63s0,0,0-.07,0-.1,0-.11h0a.23.23,0,0,0,0-.16.19.19,0,0,1,0,.13s0,0,0,0a.18.18,0,0,0,0-.14.2.2,0,0,0-.07-.11c0,.1,0,.14,0,.17a.28.28,0,0,1,0,.16s0,0,0,0,0,0,0,.09,0,0,0,0,0,.07-.06.1,0-.08-.07,0a.07.07,0,0,1,0,0s0,0,0,0l-.05,0s0,0,.06-.09c-.13,0-.15.12-.23.19v0a.13.13,0,0,1-.07,0c-.06,0,0,0,0,0l-.09.05h0l-.05,0s0,0,0,0l.32-.18h0a.37.37,0,0,0-.37-.64l-.14.08s0,0,0,0l-.16.1s0,0,0,0-.05,0-.06,0-.12.07-.14,0,0,.06-.14.11.08-.05,0-.05l-.11.07s0,0,.05-.06a4.82,4.82,0,0,0-.76.31c-.05,0,0,0,0,0-.18.13-.3.11-.46.2v0a6.29,6.29,0,0,0-.79.38h0l-.12.1s0,0-.06,0,.05,0,0,0c-.24.08-.7.36-1.08.54s-1,.56-1.52.84c.07,0,.06,0,0,0s-.25.16-.44.2a7.28,7.28,0,0,0-.78.46l0,0s-.05,0-.09.06h0l-.27.16v0c-.06,0,0,0-.09.05v0l0,.06s-.17.09-.23.1a2.61,2.61,0,0,1-.32.2,1.13,1.13,0,0,0-.26.11c-.17.1-.42.25-.64.36l0,0-.06,0s0,0,0,0-.13.08-.19.09.05,0,.08,0,0,0-.05.06h0l0,0s-.06,0-.07,0c-.19.11-.3.22-.5.32,0,0-.13.08-.12,0s0,0,0,.07-.06.05-.07,0,0,0,0,0l-.08,0,0,0c-.15.11-.3.13-.43.23s.06,0,.05,0-.14,0-.26.15v0a.17.17,0,0,1-.12.09s.05,0,.08-.08-.18.11-.13.1-.08,0-.12,0,.06,0,0,0l0,0,0,0a.68.68,0,0,0-.31.36s0,0,0,0a.53.53,0,0,1,0,.17.45.45,0,0,0,0,.22.77.77,0,0,0,.1.23.74.74,0,0,0,.36.29.76.76,0,0,0,.47,0l.11,0,0,0h0l0,0,.11-.06.2-.11a.69.69,0,0,1,.22-.18l0,0,.07-.06s0,0,0,0l0,0s.2-.1.08,0l.3-.17c.07,0,0,0,.1-.08s0,0,0,0c.23-.09.21-.22.42-.31h0s.1-.06.1-.07,0,0-.1.06.06-.06.05-.09.07,0,.11-.07.17-.09.24-.09.05-.09.12-.13,0,0,.08,0v0c.06,0,.06,0,.06,0s0-.06.12-.09l0,0a.76.76,0,0,1,.16-.09s0,0,0,0,.07-.06.09-.07-.07,0-.05,0,.07-.07.11-.07l0,0c.07-.07,0,0,.13-.1h0a.82.82,0,0,1,.23-.13v0s0-.06.06-.07,0,0-.06,0,.09-.09.21-.14a.08.08,0,0,1,0,0s0,.08-.07.13.08-.06.08,0v0l.06,0s-.07,0,0,0,.06,0,.06,0,0-.05.11-.09l0,0c.07,0,.16-.09.2-.07s0,0,0,0h0c0,.06,0,0,.05,0s.08-.06.12-.07l0,0c.1-.14,0,0,.15,0s0,0,0,0,.1,0,.17-.08.09,0,.1,0,.16-.07.18-.11-.07.07-.19.1v0l.21-.12h0c.1-.07.11-.11.21-.16s0,0-.07.07.07,0,.17-.08-.07,0-.07.06l.1-.07h0s.08,0,.14-.09.15-.14.23-.22,0,0,0,0,0,0,0,0,.13,0,.11,0,0,0,0,0l.11-.06s-.06,0,0,0a.47.47,0,0,1,.14-.08s0,0,0,0a.15.15,0,0,0,.1-.07c-.08,0,.11-.08,0-.07l.08,0s0,0,0,0,.05,0,.08,0,.09,0,.1,0a.21.21,0,0,1,.1,0s0,0,0,0l.11-.06s.05,0,0,.06,0,0,.06-.09.1,0,.06,0a.5.5,0,0,0,.21-.1s-.07,0-.08,0c.16-.1.14-.17.27-.23h0a.3.3,0,0,0,.1-.09s.12,0,.25-.05-.09,0-.08,0l.08,0s0,0,0,0,.16,0,.16-.08h.06s.08-.07.1-.08a.29.29,0,0,1,.17-.08s-.07,0,0,0,.15-.06.16,0,.08,0,.07,0v0s.09-.1.16-.15.08,0,.14,0,.12-.09.12-.12.07,0,.09,0l0,0a1,1,0,0,0,.22-.08l0-.06h0s.06,0,0,0l0,0s0,0,.1-.08,0,0,0,0,0,0,.05,0,.08-.12,0-.09,0,0,.07-.06l0,0,0,0c.05,0,.08,0,.12,0s-.06.11,0,0c-.06,0-.07.07-.1.09s0,0,0,0,0,0,.1-.08,0,0,.11,0h-.06s0,0,0,0,.08-.09.1-.08.13-.11.06-.11.06,0,.08,0,.07,0,.07,0-.07,0,0,0l.11,0,0,0,.07,0s-.07,0,0,0,.07,0,.08,0,0,0,0,.09.17-.11.1-.1l.05,0s-.13,0,0,0h0l.06-.06h0s0,0,0,0,0,0,0,0,.06-.06.07-.07.05,0,0,0a.74.74,0,0,1,.21-.09c.07-.06,0,0,0,0s.27-.13.39-.2c-.06,0,0,0,0-.07s.13,0,0,0l.07,0c.05,0-.1.08,0,.07a.36.36,0,0,0,.09-.08l.13-.13s0,0,0,0,0-.06,0,0,0,.06-.06.1l0,0a.58.58,0,0,0,.07-.11S271.25,107.64,271.25,107.63Zm-.72.33h0l0,0Z"/><path class="cls-3" d="M265.18,111.24l.05,0,0,0A.08.08,0,0,1,265.18,111.24Z"/><path class="cls-3" d="M263.35,112.22v0S263.35,112.23,263.35,112.22Z"/><path class="cls-3" d="M262.92,112.52s0,0,0,0Z"/><path class="cls-3" d="M266.25,110.56s0,0,0,0Z"/><path class="cls-3" d="M269,109l0,0Z"/><path class="cls-3" d="M265.55,111l0,0Z"/><polygon class="cls-3" points="268.94 109.02 268.9 109.04 268.9 109.05 268.94 109.02"/><path class="cls-3" d="M269.24,108.89l-.05,0S269.23,108.91,269.24,108.89Z"/><path class="cls-3" d="M267.31,109.91h0S267.3,109.93,267.31,109.91Z"/><polygon class="cls-3" points="268.79 109.16 268.78 109.16 268.77 109.17 268.79 109.16"/><path class="cls-3" d="M269.42,108.8l0,0h0Z"/><path class="cls-3" d="M267.94,109.6a0,0,0,0,0,0,0S267.93,109.59,267.94,109.6Z"/><path class="cls-1" d="M155.81,60.2c19.1,25.18,33.29,69.5-1.63,101.4s-23.7,70.28-3.12,83.57c25.65,16.58,70.91-.14,94.17-56.62,22.31-54.18.94-102.93-36.64-141.26S136.71,35,155.81,60.2Z"/><path class="cls-4" d="M167,197.78l-.19,1.65-.5,4.49-.74,6.64-.9,8.1-1,8.84-1,8.95-.93,8.35-.78,7-.57,5.09c-.09.8-.2,1.59-.26,2.39,0,0,0,.07,0,.11a.9.9,0,0,0,.89.88.92.92,0,0,0,.89-.88l.18-1.65.5-4.49.74-6.64.9-8.1,1-8.84,1-8.95.93-8.35.78-7,.57-5.09c.09-.8.2-1.6.27-2.39a.41.41,0,0,1,0-.11.89.89,0,0,0-1.77,0Z"/><path class="cls-4" d="M172.33,223.35a17,17,0,0,0,1.7-.44,24.43,24.43,0,0,0,4.12-1.65A19.13,19.13,0,0,0,182.8,218a14.5,14.5,0,0,0,3.57-5.49,16.24,16.24,0,0,0,.59-7.95c-.05-.37-.12-.75-.2-1.13a.89.89,0,0,0-1.09-.61.9.9,0,0,0-.62,1.08c.08.38.15.76.2,1.13,0,.08.06.43,0,.1l0,.24.06.56a17.38,17.38,0,0,1,.06,2c0,.32,0,.64,0,.95,0,.15,0,.3-.05.45v.09c0,.12,0-.25,0-.09a2.51,2.51,0,0,0,0,.27,13.89,13.89,0,0,1-.38,1.67c-.08.27-.17.53-.26.8l-.14.36c0,.08-.15.34,0,0l-.08.2a14.29,14.29,0,0,1-.73,1.4c-.27.44-.56.86-.86,1.27.19-.27.06-.09,0,0l-.12.15-.25.3c-.16.19-.32.36-.49.54a13.72,13.72,0,0,1-1,1l-.55.46-.14.11c-.15.12.18-.14,0,0l-.29.22a19,19,0,0,1-2.26,1.42c-.36.2-.73.38-1.1.56l-.54.24-.25.11,0,0-.13.06c-.61.25-1.23.47-1.86.67s-1.34.37-2,.53h0a.88.88,0,0,0-.62,1.09.92.92,0,0,0,1.09.62Z"/><path class="cls-4" d="M193.74,103.45c-.2.47-.4,1-.59,1.42-.55,1.32-1.09,2.65-1.63,4q-1.23,3-2.45,6.06c-1,2.59-2.06,5.17-3.08,7.76q-1.76,4.47-3.48,9-1.86,4.86-3.67,9.74-1.87,5.05-3.69,10.14t-3.45,10c-1,3.16-2.07,6.33-3,9.52-.87,2.88-1.7,5.77-2.44,8.68-.6,2.36-1.15,4.73-1.55,7.13a29.33,29.33,0,0,0-.51,5.53,6.7,6.7,0,0,0,1.4,4.29,10.77,10.77,0,0,0,5.27,3.09,35.59,35.59,0,0,0,7.94,1.3,90.43,90.43,0,0,0,9.6,0c3.33-.15,6.65-.43,10-.79q4.6-.51,9.2-1.2,3.67-.54,7.33-1.19c1.4-.25,2.79-.51,4.18-.79l.56-.11a1,1,0,0,0,.83-.8c.16-1.34.3-2.68.42-4a31.48,31.48,0,0,0,.19-6.06,1,1,0,0,0-1.9.22A28.46,28.46,0,0,1,219,192c-.11,1.31-.25,2.61-.41,3.92l.84-.81c-.74.16-1.48.3-2.23.44-1.95.37-3.91.71-5.87,1q-4.17.69-8.36,1.24c-3.2.42-6.4.77-9.62,1s-6.52.44-9.78.44h-2.15c-.76,0-1.52-.06-2.27-.11-1.39-.08-2.77-.22-4.14-.43-.63-.1-1.25-.21-1.87-.34l-.89-.22-.42-.11-.18-.05-.07,0a13.81,13.81,0,0,1-2.86-1.19l-.14-.08c.14.08.11.07,0,0s-.21-.13-.3-.2a5,5,0,0,1-.52-.39c-.17-.14-.32-.29-.48-.43.2.18,0,0,0-.07a2.25,2.25,0,0,1-.21-.24,5.62,5.62,0,0,1-.35-.5c-.14-.21.08.17,0-.08-.05-.09-.1-.19-.14-.28a5.14,5.14,0,0,1-.2-.55c0-.05,0-.1,0-.15s.06.29,0,.14,0-.14,0-.21a9.22,9.22,0,0,1-.16-1.89v-.27c0,.31,0,0,0-.09a5.83,5.83,0,0,1,0-.59c0-.44.06-.88.11-1.31a59.41,59.41,0,0,1,1.12-6.35c.6-2.67,1.3-5.31,2-7.94l.31-1.09.07-.25c0,.17,0-.08,0-.13s.11-.36.16-.54c.23-.76.45-1.52.69-2.28q.71-2.33,1.45-4.63,1.58-4.92,3.28-9.79,1.74-5,3.58-10.06t3.68-9.9q1.77-4.66,3.57-9.32,1.62-4.14,3.25-8.26,1.36-3.44,2.75-6.85c.67-1.67,1.35-3.32,2-5l1.1-2.67c0-.12.1-.23.14-.34a1,1,0,0,0-1.74-.77Z"/><path class="cls-4" d="M207.55,143.74c.31,3.37.68,6.74,1.16,10.09s1.08,6.85,1.83,10.24a100.28,100.28,0,0,0,2.81,10.18,65.88,65.88,0,0,0,3.92,9.3,41.18,41.18,0,0,0,2.51,4.3,22.62,22.62,0,0,0,3,3.53,17.64,17.64,0,0,0,7.56,4.35,13.41,13.41,0,0,0,8.46-.53A13,13,0,0,0,245,190a20.14,20.14,0,0,0,2.65-7.63,38.77,38.77,0,0,0,.28-8.27c0-.63-.1-1.26-.16-1.89a.91.91,0,0,0-1.8.21c0,.12,0-.29,0-.08,0,0,.07-.28,0-.14s0,.06,0,.09.15-.22.06-.11l-.05.07-.15.16c.18-.2.07-.07,0,0a1.84,1.84,0,0,1-.22.17c-.16.12-.33.23-.51.34l-.26.16c-.12.07.19-.11,0,0l-.18.09-.68.35c-.48.23-1,.45-1.46.66a39.31,39.31,0,0,1-4.63,1.68c-.08,0,.12,0,0,0l-.33.08-.72.15c-.45.08-.92.15-1.38.2s-.9.08-1.35.09h-.53l-.73,0a14.53,14.53,0,0,1-4.33-1,16,16,0,0,1-1.82-.87l-.21-.13c.13.08,0,0,0,0L226,174a6.82,6.82,0,0,1-.79-.63l-.18-.16s-.2-.22-.05-.06c-.11-.12-.22-.23-.32-.36s-.2-.25-.29-.38l-.13-.2-.07-.11c-.07-.11.07.14,0,0a6.67,6.67,0,0,1-.39-.92l0-.11c0-.12,0,.17,0,0a2,2,0,0,1-.05-.24,5,5,0,0,1-.08-.54l0-.57v-.25a1.48,1.48,0,0,1,0-.21c0-.41.07-.81.13-1.22s.15-.79.25-1.18c0-.1.06-.2.08-.3s.06-.19,0-.1,0-.05,0-.05c.06-.21.13-.42.2-.63a29.54,29.54,0,0,1,2-4.49l.51-.94c.44-.79-.7-1.66-1.37-1.09a20.51,20.51,0,0,0-3.29,3.73,22.68,22.68,0,0,0-4.08,10,20.14,20.14,0,0,0,.45,7.69.93.93,0,0,0,1,.8c.44-.07.93-.52.8-1a20.31,20.31,0,0,1-.57-3.46c0-.54-.06-1.09-.06-1.64h0a1.48,1.48,0,0,0,0-.21c0-.12,0-.24,0-.35,0-.28,0-.56.06-.83a19.33,19.33,0,0,1,.52-2.93c0-.11,0-.21.08-.31s.09-.37,0-.14c0-.24.15-.48.22-.71.15-.42.3-.84.47-1.25a22.18,22.18,0,0,1,1.1-2.31l.29-.52.13-.22c.1-.17-.11.18,0,0l.09-.15c.2-.32.4-.63.61-.94a25.46,25.46,0,0,1,2.2-2.77l.47-.49.21-.2c-.19.19-.11.1,0,0l.33-.3-1.38-1.09a39.19,39.19,0,0,0-2.17,4.47,15.77,15.77,0,0,0-1.2,5.18,7.7,7.7,0,0,0,.32,2.62,5.86,5.86,0,0,0,1.07,1.94,10.27,10.27,0,0,0,3.59,2.66,17.35,17.35,0,0,0,4.37,1.43,16.14,16.14,0,0,0,5.92-.08,30.17,30.17,0,0,0,5.57-1.8,26,26,0,0,0,3-1.39,4.35,4.35,0,0,0,2-1.77,1.4,1.4,0,0,0,.12-.73l-1.8.21c.13,1.29.21,2.57.24,3.86,0,.33,0,.67,0,1,0,.16,0,.31,0,.47s0-.16,0,.08v.25c0,.68-.06,1.35-.12,2a27.37,27.37,0,0,1-.6,3.91c-.07.31-.15.61-.23.92,0,0-.08.27,0,.15s0,.11-.05.15-.09.31-.14.47c-.21.6-.44,1.19-.7,1.77-.13.28-.27.55-.41.82l-.23.41-.1.17c-.06.11.09-.14,0,0l-.07.11a11.11,11.11,0,0,1-1.08,1.47c-.2.24-.41.47-.62.69l-.1.09s.12-.11.05,0l-.17.16-.35.31a11.71,11.71,0,0,1-1.53,1.08l-.08.05-.25.14-.5.25c-.33.16-.67.31-1,.44s-.67.25-1,.35l-.21.06-.11,0c.19-.06.06,0,0,0l-.51.11a11.58,11.58,0,0,1-2,.23h-.84l-1-.09-1-.18-.45-.11-.25-.06-.1,0c-.17,0,.09,0,0,0a17.54,17.54,0,0,1-1.87-.71l-.93-.46-.42-.24-.23-.13c.17.1-.07,0-.12-.08a20.15,20.15,0,0,1-1.7-1.21c-.55-.45-1.08-.93-1.59-1.43a.57.57,0,0,0-.11-.11s.1.1,0,0a1.8,1.8,0,0,1-.19-.2c-.13-.13-.25-.27-.38-.41s-.49-.56-.72-.85c-.47-.58-.9-1.18-1.31-1.8-.21-.32-.41-.65-.61-1l-.29-.48-.15-.27-.06-.11c.06.11,0,0,0-.06a62.41,62.41,0,0,1-4.06-8.93c-.59-1.58-1.11-3.17-1.59-4.79-.25-.82-.48-1.64-.71-2.47-.1-.4-.21-.8-.31-1.2,0,.14,0-.12,0-.16s-.06-.21-.08-.32l-.15-.62c-.81-3.32-1.45-6.67-2-10s-.93-6.62-1.26-10c-.08-.79-.16-1.57-.23-2.36a.91.91,0,1,0-1.8.21Z"/><path class="cls-4" d="M252.6,124.24c0-.15-.09-.3-.13-.45s0,.17,0,0l0-.12-.06-.27c-.06-.32-.11-.64-.14-1s-.06-.65-.07-1c0-.16,0-.32,0-.48a1.62,1.62,0,0,1,0-.22c0,.24,0-.07,0-.13a21.44,21.44,0,0,1,.56-4c.07-.31.15-.63.23-.94,0-.15.08-.3.13-.45s.08-.3,0-.07a2.17,2.17,0,0,1,.07-.24c.17-.56.35-1.12.55-1.68.32-.88.67-1.76,1.05-2.62.18-.39.36-.79.56-1.17a.86.86,0,0,0-.89-1.2,11.24,11.24,0,0,0-5.34,2.13,15.16,15.16,0,0,0-3.6,3.93,24.07,24.07,0,0,0-2.3,4.56,31.55,31.55,0,0,0-1.21,3.91,14.06,14.06,0,0,0-.38,1.8v0l.17-.4a23.83,23.83,0,0,0-1.76,3.12,14.66,14.66,0,0,0-1.66,6.3,5.68,5.68,0,0,0,1.1,3.4.86.86,0,0,0,1.2.17.87.87,0,0,0,.17-1.2,3.62,3.62,0,0,1-.27-.41c-.1-.14.07.16,0,0a.54.54,0,0,1-.05-.11,2.1,2.1,0,0,1-.13-.26,3.12,3.12,0,0,1-.15-.43s-.09-.3,0-.14,0-.12,0-.18a5.67,5.67,0,0,1-.1-1v-.16c0,.15,0-.1,0-.14,0-.19,0-.38,0-.57a9.6,9.6,0,0,1,.18-1l.12-.52.08-.26c.05-.18,0,.15,0,0s0-.12.05-.18a21.49,21.49,0,0,1,.77-2c.25-.57.53-1.14.83-1.7.13-.23.25-.46.39-.69s.11-.19.17-.29a.75.75,0,0,1,.07-.12l0,0a3.47,3.47,0,0,0,.58-1.13c.08-.49.18-1,.3-1.46s.2-.8.31-1.2l.09-.32c-.09.31,0,.08,0,0l.06-.21c.07-.24.15-.49.23-.73a27.39,27.39,0,0,1,1.32-3.28c.28-.58.58-1.14.9-1.69a.41.41,0,0,0,0-.09c-.14.21,0,.08,0,0l.11-.18c.09-.15.18-.29.28-.43s.37-.54.57-.8a13.19,13.19,0,0,1,1.29-1.51l.15-.16c-.19.21,0,0,0,0s.26-.24.4-.35.5-.42.76-.61.56-.39.86-.57l.12-.07.14-.07.47-.23a8.62,8.62,0,0,1,1-.39l.47-.15.25-.07c-.27.1.06,0,.13,0,.35-.08.71-.13,1.06-.18l-.88-1.19a28.21,28.21,0,0,0-1.5,3.49,27,27,0,0,0-1.78,7.77,13.47,13.47,0,0,0,.51,4.77.86.86,0,0,0,1.12.47.88.88,0,0,0,.48-1.11Z"/><path class="cls-4" d="M244.16,133a7.43,7.43,0,0,1-.56-.82s-.15-.25-.07-.1,0,0,0,0l-.06-.12c-.08-.16-.16-.32-.23-.49a4.55,4.55,0,0,1-.21-.51l-.09-.29a.61.61,0,0,0,0-.13.66.66,0,0,0,0,.11.29.29,0,0,0,0-.09c0-.2-.08-.41-.1-.61a2.81,2.81,0,0,1,0-.29s0-.21,0,0,0,0,0-.08a2.76,2.76,0,0,1,.1-.64s0-.05,0-.07l0,.09s0-.11.05-.15.09-.22.14-.33l.08-.15c.07-.14-.09.13,0,0a2,2,0,0,1,.21-.3l.24-.28.06-.07c-.12.14,0,.05,0,0l.18-.15a3.9,3.9,0,0,1,.4-.31l.15-.09c.19-.12-.15.08,0,0a9.14,9.14,0,0,1,1.56-.64l.49-.14.23-.06s.21-.06.05,0h0c.36-.09.73-.16,1.09-.23a36,36,0,0,1,5.07-.6q1.35-.07,2.7-.06h.19s.22,0,.07,0,0,0,.07,0h.18l.68,0c.44,0,.87.05,1.3.09.82.06,1.64.16,2.45.3.37.06.75.14,1.12.23l.5.12.12,0c.14,0-.2-.07,0,0l.24.08a9.32,9.32,0,0,1,.88.33l.4.19.17.09.08,0c.13.07-.17-.11-.07,0s.4.29.59.45-.12-.14,0,0l.1.12.1.13s.13.22,0,0,0,0,0,0l.06.14c0,.08.05.16.08.25s0,.07,0,.09,0-.17,0-.07l.05.2a4.9,4.9,0,0,1,.07.67c0,.15,0-.2,0,0a.62.62,0,0,1,0,.13,2.17,2.17,0,0,1,0,.25c0,.11-.09.13,0,0a.3.3,0,0,0,0,.1,1.89,1.89,0,0,1-.09.21c-.09.19.11-.16,0,0l-.14.18-.07.08.06-.06-.16.14-.35.26a7.09,7.09,0,0,0-1.48,1.19,3.21,3.21,0,0,0-.6,2.49c.08.61.18,1.21.23,1.82,0,.26,0,.52.05.78v.17c0,.13,0,.11,0,0,0,.11,0,.23,0,.34a3.81,3.81,0,0,1-.08.59l0,.13c0,.16,0-.1,0-.05l-.09.27c0,.07-.07.14-.11.22s.06-.1,0-.06l-.07.12-.15.19-.09.1c-.12.13.12-.1,0,0a4.47,4.47,0,0,1-.41.32l-.14.09s-.17.1,0,0l-.06,0-.16.08a.87.87,0,0,0-.36,1.31c.11.15.22.31.32.47l.14.24c.05.08-.13-.24,0,0l.09.17c.11.22.22.46.32.69s.16.52.25.78c-.1-.29,0-.05,0,0s0,.15,0,.22,0,.31.05.46a1.48,1.48,0,0,1,0,.21v.12c0-.15,0-.19,0-.1s0,.33,0,.49,0,.16-.05.24a.24.24,0,0,0,0,.08c0,.17.07-.2,0,0s-.11.31-.18.47a2,2,0,0,0-.14.25c.1-.22,0-.09,0,0l-.08.13a5.57,5.57,0,0,1-.41.48s.14-.14,0,0l-.13.11-.28.22c-.11.09-.23.16-.34.24l-.14.09c-.09,0-.08,0,0,0l-.12.07a.87.87,0,0,0-.37,1.31,3.45,3.45,0,0,1,.2.32c.11.18-.12-.23,0,0l.12.21c.08.16.15.32.22.48s.15.38.21.57l.09.29c0,.1-.06-.26,0,0,0,0,0,.11,0,.17a4.91,4.91,0,0,1,.08.67v.16c0,.18,0-.24,0,0s0,.24,0,.36,0,.21-.07.32,0-.1,0-.11l0,.09c0,.07-.05.13-.07.2s-.1.21-.16.31,0-.09.06-.09,0,.06-.06.09l-.13.18-.11.13-.08.08c-.1.11.05,0,.05,0s-.3.26-.35.3a3.11,3.11,0,0,1-.38.25c-.1.07,0,0,0,0l-.1.06-.31.15a9.33,9.33,0,0,1-1.09.38l-.16,0c-.07,0-.33.06,0,0-.13,0-.27.07-.41.1-.6.14-1.21.26-1.82.36a41.79,41.79,0,0,1-4.18.49q-1.11.08-2.22.09h-.82a.94.94,0,0,1-.29,0c.13.05.15,0,0,0h-.37l-.58,0a21.59,21.59,0,0,1-4-.52l-.42-.11-.09,0c-.16,0,.17.06.06,0l-.24-.07c-.27-.09-.53-.18-.79-.29a5.52,5.52,0,0,1-.69-.34l-.14-.07c.26.11.07,0,0,0l-.3-.21-.24-.21-.1-.09c-.14-.13.15.17,0,0s-.24-.32-.36-.49.12.22.06.09l0-.06-.07-.14c0-.1-.07-.19-.1-.29s0-.09,0-.1.06.29.05.18a.19.19,0,0,0,0-.07,2.56,2.56,0,0,1,0-.39c0-.16,0,.26,0,.08a.53.53,0,0,1,0-.13,2.84,2.84,0,0,1,.06-.31c0-.1-.08.23,0,.1a.64.64,0,0,1,0-.07l.06-.15a1.09,1.09,0,0,0,.08-.15c0,.11-.11.16-.05.09a.36.36,0,0,1,.07-.1,1.09,1.09,0,0,1,.13-.17l.06-.06c.1-.13-.13.1,0,0l.38-.29c.15-.1-.14.06,0,0l.13-.06.26-.12c.21-.08.42-.14.63-.2a.84.84,0,0,0,.53-.66.9.9,0,0,0-.32-.81c-.15-.14.18.19,0,0l-.3-.33-.39-.51-.19-.3-.11-.17a.21.21,0,0,0,0-.06c-.07-.13.12.21,0,0a8,8,0,0,1-.36-.79,2.91,2.91,0,0,1-.12-.39c0-.1,0-.14,0,.06a.7.7,0,0,0,0-.12c0-.08,0-.16,0-.25a3,3,0,0,1,0-.42.57.57,0,0,0,0-.13c0-.16,0,.19,0,.08a2.85,2.85,0,0,1,0-.29,2.26,2.26,0,0,1,.08-.44c0-.16,0,0,0,0s0-.07,0-.08.07-.2.11-.3a2,2,0,0,1,.15-.29.73.73,0,0,0,.05-.09q-.1.16,0,.06l.06-.09a4.34,4.34,0,0,1,.42-.54l.13-.13,0,0a3.88,3.88,0,0,1,.31-.26,6.16,6.16,0,0,1,.78-.56.87.87,0,0,0,.17-1.2,5.5,5.5,0,0,1-.34-.5.75.75,0,0,0-.07-.12c-.09-.16.12.21,0,0s-.11-.2-.16-.31-.22-.48-.31-.73-.09-.27-.13-.4,0,.2,0,0c0-.07,0-.14-.05-.22a3.62,3.62,0,0,1-.06-.46,1.62,1.62,0,0,1,0-.22v-.11c0-.17,0,.09,0,.07s0-.31.05-.47,0-.14,0-.22l0-.11c0-.12-.07.21,0,0a4,4,0,0,1,.2-.48l.06-.11c.07-.14-.06.09,0,.05a1.88,1.88,0,0,1,.16-.23,2.43,2.43,0,0,1,.2-.25l.11-.12c.12-.13-.11.1,0,0a6.26,6.26,0,0,1,.57-.45l.36-.23-.07,0,.11-.06.19-.1a8.18,8.18,0,0,1,.92-.39.87.87,0,0,0,.47-1.12.88.88,0,0,0-1.12-.47c-1.85.67-3.63,2-3.9,4.07a6.42,6.42,0,0,0,1,3.93,7.28,7.28,0,0,0,.44.69l.17-1.2a6.55,6.55,0,0,0-2.28,2.31,4.33,4.33,0,0,0-.5,2.39,6.55,6.55,0,0,0,1.5,3.52,7.06,7.06,0,0,0,.69.76l.21-1.47a3.21,3.21,0,0,0-2.07,5.23,6.14,6.14,0,0,0,2.84,1.83,16.87,16.87,0,0,0,4,.83,38.79,38.79,0,0,0,9.26-.28,29.93,29.93,0,0,0,4-.82,5,5,0,0,0,3.41-2.62c.74-1.75.07-3.78-.91-5.3a.56.56,0,0,0-.05-.08l-.37,1.31a5.87,5.87,0,0,0,2.26-1.93,4.61,4.61,0,0,0,.72-2.27,7.14,7.14,0,0,0-1.12-3.8,5.74,5.74,0,0,0-.43-.66l-.36,1.31a4.22,4.22,0,0,0,2-1.87,5.66,5.66,0,0,0,.38-2.85c0-.63-.12-1.25-.21-1.87a6.53,6.53,0,0,1-.08-.76c0-.15,0,.2,0,0s0-.1,0-.15a2.93,2.93,0,0,1,.05-.29c0-.15,0,.11,0,.07l0-.11a2.26,2.26,0,0,1,.11-.22c.06-.15-.11.15,0,0l.06-.08a.9.9,0,0,1,.15-.19l.06-.07c.09-.1-.16.14-.06.06l.18-.15a4.22,4.22,0,0,1,.36-.27,5.73,5.73,0,0,0,1.51-1.26,3.3,3.3,0,0,0,.46-2.65,3.9,3.9,0,0,0-.36-1.11,3.23,3.23,0,0,0-.64-.84,5.2,5.2,0,0,0-1.51-1,15.68,15.68,0,0,0-4.47-1.11,38,38,0,0,0-5.64-.24,39.67,39.67,0,0,0-5.43.47,17.94,17.94,0,0,0-4.33,1.13,4.88,4.88,0,0,0-3.16,4.1,7.27,7.27,0,0,0,1.54,4.47l.17.22a.87.87,0,0,0,1.2.17A.86.86,0,0,0,244.16,133Z"/><path class="cls-4" d="M238.71,135.92l-1.4,2.59q-1.71,3.23-3.37,6.47-2.17,4.23-4.24,8.52c-1.37,2.86-2.7,5.75-3.92,8.68a49.88,49.88,0,0,0-2.52,7.13c-.06.22-.11.44-.16.66a.87.87,0,0,0,.72,1,.89.89,0,0,0,1-.72c.1-.46.22-.92.34-1.37l0-.1,0,.07a.84.84,0,0,0,0-.17l.12-.39.27-.82c.42-1.24.89-2.46,1.38-3.67,1.18-2.9,2.48-5.74,3.81-8.56s2.8-5.75,4.25-8.6q1.74-3.42,3.54-6.81c.55-1.05,1.16-2.09,1.68-3.15l0,0a.86.86,0,1,0-1.57-.69Z"/><path class="cls-4" d="M245.37,155.1c0,1.36,0,2.72-.06,4.08,0,.65-.08,1.31-.13,2,0,.37-.06.74-.09,1.11,0-.2,0,0,0,.1a2.11,2.11,0,0,0,0,.25c0,.21-.05.42-.07.63-.18,1.65-.43,3.3-.75,4.94a41.36,41.36,0,0,1-1.57,5.77.85.85,0,0,0,.65,1,.88.88,0,0,0,1-.64,46.11,46.11,0,0,0,2.26-10.18,68.66,68.66,0,0,0,.5-7.71c0-.47,0-.93,0-1.4a.86.86,0,1,0-1.72.06Z"/><path class="cls-4" d="M236,74.31l-.24,3.24-.39,5.18-.09,1.19.36-.61-.76.7-2.09,1.91-3.08,2.82-3.76,3.43-4.11,3.76-4.18,3.82-3.87,3.54-3.28,3-2.36,2.16c-.37.34-.76.67-1.12,1l0,0,1.44.4-1.82-3.65-2.89-5.76L203,99.16l-.31,1.1.93-.67,2.54-1.82,3.73-2.69,4.57-3.3,5-3.6,5-3.63,4.71-3.4,4-2.87L236,76.22c.45-.32.91-.64,1.35-1l.06,0a.94.94,0,0,0-1.13-1.5l-.94.67-2.53,1.82-3.73,2.69-4.57,3.3-5,3.6-5,3.63-4.71,3.4-4,2.87L203,97.74c-.45.32-.91.64-1.35,1l-.06,0a1,1,0,0,0-.31,1.1l1.83,3.65,2.89,5.77.67,1.33a1,1,0,0,0,1.44.4l1.18-1.08,3.12-2.85,4.43-4,5.11-4.67,5.18-4.73,4.6-4.21,3.41-3.11c.53-.49,1.06-1,1.58-1.45a1.1,1.1,0,0,0,.41-.66,4.91,4.91,0,0,0,0-.53l.21-2.7.44-6,0-.38a.94.94,0,1,0-1.86-.28Z"/><path class="cls-4" d="M194.45,106.8l3.88-4.14,2.46-2.63a8.29,8.29,0,0,0,.85-.93c.29-.43.53-.91.79-1.36L204,95l4-7c.81-1.41,1.63-2.82,2.44-4.24l0-.06a1.13,1.13,0,0,0-.14-1.45,1.11,1.11,0,0,0-1.46-.07c-.58.46-1.15,1-1.72,1.43-1.4,1.21-2.77,2.47-4.08,3.77a65.52,65.52,0,0,0-5,5.44A34,34,0,0,0,194,99.1a13.94,13.94,0,0,0-1.62,6.5c0,.24,0,.48,0,.71a1.13,1.13,0,0,0,1.27.93,1.14,1.14,0,0,0,.93-1.27,1.66,1.66,0,0,1,0-.32c0-.07,0-.13,0-.19v-.09c0-.15,0,.11,0,.13,0-.23,0-.46,0-.69a9.1,9.1,0,0,1,.21-1.48,3.59,3.59,0,0,1,.08-.35c0-.07-.07.25,0,0l.06-.24c.07-.24.15-.49.23-.73.18-.52.38-1,.61-1.53s.49-1,.75-1.5c0-.06-.11.2,0,0l.1-.18.24-.41c.15-.26.31-.51.47-.77.65-1,1.35-2,2.09-2.93s1.54-1.9,2.35-2.8c.4-.45.82-.88,1.22-1.33h0l.14-.14.3-.31.6-.61c1.34-1.35,2.74-2.65,4.17-3.9.67-.59,1.38-1.13,2-1.71l0,0-1.59-1.51L206.66,86l-4,6.9L200,97.63a3.73,3.73,0,0,1-.54.65l-2.21,2.36-4.45,4.76-.09.09a1.13,1.13,0,0,0,.24,1.55A1.14,1.14,0,0,0,194.45,106.8Z"/><path class="cls-4" d="M240.38,103c-.17.09.26,0,.18,0l-.17,0-.59.11c-.68.12-1.36.27-2,.43q-1.62.39-3.21.9c-1.23.41-2.45.87-3.65,1.4a41.46,41.46,0,0,0-4.29,2.22,36.63,36.63,0,0,0-4.26,2.94,38.42,38.42,0,0,0-8.32,9.19,44,44,0,0,0-3.49,6.53,52.55,52.55,0,0,0-2.65,8c-.18.71-.34,1.43-.49,2.15a1.07,1.07,0,0,0,.89,1.21,1.1,1.1,0,0,0,1.21-.89c.15-.73.31-1.46.49-2.18.09-.36.18-.71.28-1.06,0-.16.09-.33.13-.5a1.55,1.55,0,0,0,.07-.23l0-.11c.07-.22,0,0,0,0s.26-.87.3-1c.1-.33.2-.65.31-1,.22-.63.44-1.27.68-1.89a45.19,45.19,0,0,1,3.2-6.65l.12-.19c0-.1-.07.1-.06.09a.56.56,0,0,0,.05-.08l.23-.38.46-.72c.3-.46.62-.92.94-1.37.62-.87,1.28-1.71,2-2.52s1.32-1.5,2-2.21A3,3,0,0,0,221,115s-.17.18-.09.1L221,115l.15-.15.53-.49c.35-.32.7-.64,1.06-.94a36,36,0,0,1,4.25-3.13l1.06-.65.23-.13.14-.08.06,0-.12.07c.17-.1.34-.2.52-.29.66-.37,1.34-.71,2-1a38.93,38.93,0,0,1,3.73-1.53c1-.36,2.06-.67,3.11-.94l.09,0-.18,0,.18,0,.31-.08.6-.14,1-.2c.37-.08.75-.13,1.12-.22a1.39,1.39,0,0,0,.35-.09,1.06,1.06,0,0,0-.79-2Z"/><path class="cls-4" d="M200.45,102.84l-.66,1.31c-.62,1.23-1.23,2.46-1.84,3.69q-1.38,2.82-2.74,5.65c-1.15,2.41-2.3,4.83-3.42,7.26q-2,4.22-3.86,8.46-2.06,4.59-4,9.23-2,4.81-4,9.69t-3.68,9.73c-1.11,3.09-2.16,6.21-3.12,9.36-.88,2.86-1.68,5.74-2.35,8.66-.15.65-.29,1.31-.43,2s1.1,1,1.26.2c.58-2.83,1.3-5.62,2.11-8.39.89-3.06,1.88-6.09,2.93-9.11,1.12-3.23,2.32-6.44,3.56-9.63s2.57-6.48,3.91-9.69,2.67-6.28,4-9.41q1.92-4.34,3.91-8.64c1.16-2.53,2.34-5,3.53-7.55,1-2,2-4.06,2.94-6.09.68-1.39,1.37-2.79,2.07-4.18.32-.64.66-1.27,1-1.92a.56.56,0,0,1,.05-.08c.37-.73-.8-1.24-1.17-.51Z"/><path class="cls-4" d="M213,69.73a6.45,6.45,0,0,0,1.42.49,7.47,7.47,0,0,0,3.19.13c.39-.06.31-.67-.08-.6a7,7,0,0,1-4.29-.58c-.35-.17-.59.39-.24.56Z"/><path class="cls-4" d="M206.41,67.34c2.73,4.13,7,6.26,12.66,6.31a16.11,16.11,0,0,0,3.29-.3c6.15-1.21,10.94-6.19,13.85-14.38a56.21,56.21,0,0,0,2.86-14.65v-.45l-34-.83-.11.28a31.07,31.07,0,0,0-1.84,10.93C203.1,57.93,203.67,63.18,206.41,67.34Zm31.75-22.61a54.7,54.7,0,0,1-2.79,14,25.94,25.94,0,0,1-5.75,9.77,14.21,14.21,0,0,1-10.54,4.31c-5.36-.05-9.37-2-11.93-5.91-4.63-7-3.27-18.32-1.5-22.91Z"/><path class="cls-4" d="M230.75,55.32l0,0,0-.06c-.06-.17-.13-.35-.2-.53a9,9,0,0,0-.81-1.53s0,0,0,0l0-.06-.06-.08c-.05-.08-.11-.15-.16-.22s-.22-.26-.34-.38l-.16-.16-.07-.07s-.07,0-.08-.07l-.41-.29a3.12,3.12,0,0,0-.8-.3,2.39,2.39,0,0,0-1,0,4.26,4.26,0,0,0-1.35.67,10.53,10.53,0,0,0-1.66,1.54.41.41,0,0,1-.56.12.42.42,0,0,1-.12-.57c1.31-1.5,3.38-3.35,5.53-2.41a5.8,5.8,0,0,1,2.75,3.17,9.63,9.63,0,0,1,.4,1.06c.15.51-.66.67-.8.16Z"/><path class="cls-4" d="M213.53,52.54v-.06l0,0c-.07-.18-.13-.36-.2-.53a8.69,8.69,0,0,0-.81-1.54s0,0,0,0l0-.06-.06-.09-.17-.21a4,4,0,0,0-.33-.39l-.16-.16-.07-.06-.09-.07a2.34,2.34,0,0,0-.41-.29,2.63,2.63,0,0,0-.79-.3,2.23,2.23,0,0,0-1,0,4.23,4.23,0,0,0-1.35.66A9.75,9.75,0,0,0,206.34,51a.41.41,0,1,1-.68-.46c1.31-1.5,3.38-3.35,5.53-2.41a5.92,5.92,0,0,1,2.75,3.17,9.79,9.79,0,0,1,.4,1.07c.15.51-.66.66-.81.16Z"/><path class="cls-4" d="M205.61,43.19h0c3.27,2.77,10.06,5.64,23.76,3,0,0,5.07-.09,3.67,9.91,0,0,3.1,2.55,4.83-8.38,0,0-.77,12.39-4.77,17.4,0,0,2.1,8.18,6.36,6.3s-.53-7.8.54-12.94c0,0,4.4-13.18,4-20s1.09-16.81-16-21.87-26.48,5.87-26.35,6.1-7.36,7.63.42,18.84c0,0-3.29,12.76,1.44,16.59Z"/><path class="cls-4" d="M220.57,64.12c0-.08-2.34-8.85-1.5-12.12a.43.43,0,0,0-.23-.49.41.41,0,0,0-.52.13c-5.2,6.75-5.42,9.62-5.28,10.55v0l0,0s1.61,3.4,6.51,2.43a7.47,7.47,0,0,0,.76-.17l.31-.09Zm-5.72-6,.34.31,4.23,3.75c.12.49.22.92.3,1.26l-.2-.19-5-4.56Zm.43-.79.27.23,3.51,2.93c.09.44.18.85.26,1.24L215,57.89C215.07,57.71,215.17,57.52,215.28,57.34Zm.59-1,.06.05,2.82,2.43c.07.43.15.86.23,1.26l-.12-.09-3.45-2.88Zm.52-.84.19.16,1.93,1.66c.05.36.11.72.17,1.08L216,56.09C216.13,55.89,216.26,55.69,216.39,55.49Zm.53-.81.06,0L218.35,56c0,.32.07.64.11,1l-1.92-1.65Zm1.39.87-1.23-1.09c.39-.57.79-1.13,1.19-1.68A16.26,16.26,0,0,0,218.31,55.55Zm-1.59,8.57-.14-.12-2.9-2.55a4.66,4.66,0,0,1,.13-.76l.16.15,3.67,3.38A6.32,6.32,0,0,1,216.72,64.12Zm-3-2.08a1.93,1.93,0,0,1,0-.24l0,0L216.14,64A4.22,4.22,0,0,1,213.68,62ZM218,64.22l-.21-.19-3.92-3.61c.05-.17.11-.34.17-.52l.32.29,4.33,4C218.47,64.2,218.24,64.22,218,64.22Zm1-.09-.61-.56-4.28-4c.08-.21.18-.43.28-.66l.44.41,5,4.56v0C219.58,64,219.31,64.09,219.06,64.13Z"/><path class="cls-4" d="M210.18,56.66l-.73,2-.1.29c0,.12-.24.07-.19,0l.73-2,.1-.29c0-.12.23-.08.19,0Z"/><path class="cls-4" d="M209.61,56.38,208.68,59l-.14.37c0,.11-.23.07-.19-.05l.94-2.62.13-.37c.05-.12.24-.07.19,0Z"/><path class="cls-4" d="M208.93,56.59,208,59.21l-.13.37c-.05.12-.24.08-.19,0l.93-2.63.14-.36c0-.12.23-.08.19,0Z"/><path class="cls-4" d="M208.26,56.71l-.94,2.63-.13.37c0,.11-.23.07-.19-.05l.94-2.62.13-.37c0-.12.23-.08.19,0Z"/><path class="cls-4" d="M228.23,58.5l-.74,2-.1.29c0,.11-.23.07-.19,0l.73-2,.11-.29c0-.11.23-.07.19,0Z"/><path class="cls-4" d="M227.66,58.22l-.94,2.62-.13.37c0,.12-.23.08-.19,0l.94-2.62.13-.37c0-.12.23-.08.19,0Z"/><path class="cls-4" d="M227,58.43,226,61.05l-.13.37c0,.12-.23.07-.19,0l.94-2.63.13-.37c0-.12.23-.07.19,0Z"/><path class="cls-4" d="M226.3,58.55l-.93,2.62-.14.37c0,.12-.23.08-.19,0l.94-2.63.13-.37c0-.11.24-.07.19,0Z"/><path class="cls-4" d="M210.31,71.17l-.09,3.2L210,81l-.16,5.34c0,.31-.12.91.07,1.18a3.49,3.49,0,0,0,.94.77c2.18,1.34,4.88,1.06,7.18.18a14.7,14.7,0,0,0,1.36-.59.55.55,0,0,0,.29-.69.53.53,0,0,0-.69-.29,12.58,12.58,0,0,1-3.1,1.1,7.29,7.29,0,0,1-2.27.12,5.14,5.14,0,0,1-.95-.18s-.14,0-.06,0l-.06,0-.17-.06-.38-.15-.3-.14-.14-.08c-.07,0-.15-.09-.06,0a4.15,4.15,0,0,1-.43-.3,3.47,3.47,0,0,1-.29-.25c-.11-.1.07.11,0,0l0,0,.1.4.16-5.37.26-8.57.06-2a.55.55,0,0,0-.44-.61.54.54,0,0,0-.61.45Z"/><path class="cls-4" d="M230.17,68l-.08,3.81L230,77.84l0,1.39a.53.53,0,0,0,1,.16l.08-3.81.13-6.06,0-1.39a.53.53,0,0,0-1.05-.16Z"/><path class="cls-4" d="M170.07,194.08l.3.21a10.28,10.28,0,0,0,1.11.64,18.17,18.17,0,0,0,1.74.79c.9.35,1.82.65,2.75.92,1.17.34,2.37.62,3.58.85,1.53.3,3.09.53,4.65.7,1.93.22,3.87.35,5.82.43,2.41.09,4.82.09,7.23,0,2.82-.08,5.64-.26,8.46-.51,3.32-.29,6.63-.69,9.93-1.16l2.65-.4a.63.63,0,0,0-.15-1.26q-5.12.8-10.26,1.34-4.38.45-8.78.65-1.92.09-3.84.12c-.6,0-1.2,0-1.8,0h-1.64c-2,0-4.07-.15-6.1-.34-1.64-.15-3.27-.36-4.89-.64-1.29-.22-2.57-.49-3.83-.82l-.81-.22c-.19,0,.11,0-.05,0l-.2-.05-.35-.11-1.3-.44c-.66-.25-1.31-.51-1.94-.82-.23-.11-.45-.23-.67-.35l-.26-.15c-.11-.06-.13-.08,0,0l-.1-.07c-.16-.1-.3-.2-.45-.31h0c-.63-.52-1.42.47-.79,1Z"/><path class="cls-4" d="M206.79,104.24l3.34.73.47.11c.4.09.49-.54.1-.63l-3.34-.73-.48-.11c-.4-.08-.49.54-.09.63Z"/><path class="cls-4" d="M236.24,85.06c1.22,2.26,2.36,4.58,3.45,6.91a103.11,103.11,0,0,1,5.58,14,26.73,26.73,0,0,1,1.36,7.08c0,.95,1.49.77,1.47-.17a26.13,26.13,0,0,0-1.13-6.32,70.83,70.83,0,0,0-2.48-7.23c-1.66-4.18-3.55-8.27-5.58-12.28-.42-.84-.85-1.68-1.3-2.51s-1.82-.28-1.37.56Z"/><line class="cls-4" x1="241.14" y1="148.69" x2="252.66" y2="148.13"/><path class="cls-4" d="M241.19,149.13l3.9-.19,6.2-.3,1.42-.07a.44.44,0,0,0,.39-.49.45.45,0,0,0-.49-.39l-3.89.19-6.21.3-1.42.07a.44.44,0,1,0,.1.88Z"/><line class="cls-4" x1="240.73" y1="140.96" x2="252.25" y2="140.4"/><path class="cls-4" d="M240.78,141.4l3.89-.19,6.21-.3,1.42-.07a.46.46,0,0,0,.39-.49.45.45,0,0,0-.49-.39l-3.9.19-6.2.3-1.42.07a.44.44,0,0,0-.39.49.45.45,0,0,0,.49.39Z"/><line class="cls-4" x1="242.51" y1="133.7" x2="254.03" y2="133.14"/><path class="cls-4" d="M242.56,134.14l3.9-.19,6.2-.3,1.42-.07a.44.44,0,0,0,.39-.49.45.45,0,0,0-.49-.39l-3.89.19-6.21.3-1.42.07a.45.45,0,0,0-.39.49.45.45,0,0,0,.49.39Z"/><path class="cls-4" d="M214.68,197.53l.08.16,0,.09c.1.2-.1-.25,0-.14s.07.19.11.28c.24.61.44,1.23.63,1.85a28.19,28.19,0,0,1,.66,2.86c.05.29.09.58.14.87l0,.21s0-.28,0-.12v.12c0,.16,0,.33.06.49q.1,1,.15,2a28.81,28.81,0,0,1-.15,4.55l-.06.56,0,.16s0-.25,0,0,0,.22-.05.33c-.06.43-.14.85-.22,1.28-.17.89-.38,1.76-.63,2.63s-.58,1.87-.93,2.79c-.09.22-.17.43-.26.64,0,.05-.16.4-.08.2-.05.13-.11.25-.16.38-.22.49-.44,1-.68,1.45a38.25,38.25,0,0,1-3.66,6,2,2,0,0,0-.35,1l-.26,1.52-.93,5.33L206.83,242l-1.27,7.28-1,6-.53,3.07,0,.14a1.11,1.11,0,1,0,2.13.59l.38-2.17.94-5.43,1.25-7.17,1.27-7.28,1-5.89c.17-1,.35-1.93.5-2.9a.64.64,0,0,1,0-.07s0,.07,0,.07l0,.08.11-.15.11-.15c.11-.14.21-.29.32-.44.69-1,1.35-2,1.95-3a36.82,36.82,0,0,0,2.81-6,32.52,32.52,0,0,0,2-10.47,30.62,30.62,0,0,0-.82-7.69,22.7,22.7,0,0,0-1.26-3.84l-.08-.15a1.11,1.11,0,0,0-1.51-.4,1.14,1.14,0,0,0-.4,1.52Z"/><path class="cls-4" d="M210.62,227.09l.29.86.76,2.34,1.14,3.47,1.38,4.23,1.51,4.61,1.53,4.68,1.42,4.36,1.21,3.68.86,2.65c.14.41.27.83.41,1.25l0,0a.89.89,0,1,0,1.71-.47l-.28-.86-.77-2.34-1.13-3.47-1.39-4.23-1.51-4.61-1.52-4.68-1.43-4.35-1.21-3.69-.86-2.65c-.14-.41-.27-.83-.41-1.25l0,0a.89.89,0,0,0-1.71.47Z"/><path class="cls-4" d="M171.23,228.78l-.08.81-.24,2.21-.35,3.24-.43,4-.46,4.34-.47,4.4-.44,4.1-.37,3.46-.27,2.48c0,.4-.1.79-.13,1.19V259a.88.88,0,0,0,.88.88.92.92,0,0,0,.89-.88l.08-.81.24-2.21.35-3.25.43-4,.46-4.34.47-4.4.44-4.1.38-3.46.26-2.49c0-.39.1-.78.13-1.18v-.05a.88.88,0,0,0-.88-.88.92.92,0,0,0-.89.88Z"/><path class="cls-4" d="M208.23,235.82l.71,2.23,1.72,5.36,2.07,6.49,1.78,5.57c.29.91.57,1.83.87,2.73l0,0a.88.88,0,1,0,1.7-.47l-.71-2.24-1.71-5.36-2.08-6.48-1.78-5.58c-.29-.91-.57-1.82-.87-2.73v0a.89.89,0,0,0-1.09-.61.9.9,0,0,0-.62,1.09Z"/><path class="cls-4" d="M164.09,149.55l.38-.32,0,0s.1-.09.09-.06l.08-.08h0a4.4,4.4,0,0,0,.38-.37l-.06,0,.13-.14.05-.06.06,0s0,0,0,0l.06-.07,0,.06c0-.06.21-.24.25-.28h0c.12-.12,0,0,0-.07s0,0,.11-.07.3-.38.44-.53a4.53,4.53,0,0,0,.26-.4c.08-.12,0,0,.09-.1s0,0,0,0,.15-.22.07-.14a6.11,6.11,0,0,0,.33-.57c0,.07,0,.09,0,0A3.73,3.73,0,0,1,167,146s0,.05-.05,0l0-.11s.06,0,.11-.16c0,.06-.1.26-.05.2a1.36,1.36,0,0,1-.17.41c-.05.14,0-.1.06-.07.06-.12.07-.18.15-.38,0,0,0,.06,0,0a.57.57,0,0,1,.11-.25.94.94,0,0,0,0,.09,2.46,2.46,0,0,0,.09-.29s-.06.2-.06.25l.06-.08c.06-.19,0-.06,0-.26v0a.69.69,0,0,1,0-.13s0,0-.06.13c0-.08,0-.1.05-.27s0,.07,0,.07,0-.1,0-.19,0-.06,0-.06,0,0,0,0h0v0s0,.05,0,.05c0,.18.05-.07,0,0a.51.51,0,0,0,0-.09h0s0,0,0,0l0,0,.05,0h.06a.39.39,0,0,0,.18-.06c-.05,0,.24-.18.08-.13l.15-.1s.1,0,0,0l.07,0-.1.09.27-.12c.09-.07,0,0,.07-.08s0,0,.09,0c-.1.07,0,0,0-.07a.65.65,0,0,1,.18-.1l-.09.09c.07-.07,0,0,.11-.08a.88.88,0,0,0,.06-.1l.13-.09-.09.08c.12-.1.05,0,.17-.1l0,0s0,0,0,0,.08-.08.11-.11h0a.55.55,0,0,1,.17-.17c-.07,0-.06.06-.16.13s.07-.09.09-.11.13-.12.19-.18l.1-.06v0c.05,0,.11-.12.19-.18s0,0,0,0,.07-.12,0-.12c.12-.11,0,.06.05,0s.13-.13.15-.18,0,0,0-.06,0,0,.07,0,.08-.13,0-.06.1-.16.18-.22-.11.15-.07.11,0-.11.16-.26c-.06.06,0,0,0-.1s0,.08,0,0l.05-.07c.1-.08-.12.23,0,.15l0-.08s0,.06,0,0a.94.94,0,0,1,.14-.19s0,.06,0,0a2.38,2.38,0,0,1,.16-.25c0,.07,0,0,0,0s0,0,.06-.11h0a5.91,5.91,0,0,0,.63-1.06,3,3,0,0,0,.22-.33c0,.08,0,0,0-.05l.06-.07a1.58,1.58,0,0,0,.16-.35s0,0,0,0a.21.21,0,0,0,.05-.14l0-.05v0c0-.1.09-.22.11-.2s0-.08,0,0a4.29,4.29,0,0,0,.22-.53c0,.08,0,.07,0,.08s0,0,0-.12,0-.07,0,0a6.33,6.33,0,0,0,.32-.85.12.12,0,0,0,0-.08,4.52,4.52,0,0,0,.2-.62c0,.05,0,0,0-.14s0,0,.08-.15a.71.71,0,0,1,0-.21h0a.86.86,0,0,1,.05-.27v0l.06-.22s0-.2,0-.25,0,0,0,0h0a.28.28,0,0,0,0-.18.3.3,0,0,1,0,.1.22.22,0,0,0,0-.1l0,0,0,0s-.05,0-.07,0l0,0-.07,0h.08l.06,0s0,0,0,0l-.08,0h0l-.1,0-.08.06a.47.47,0,0,0-.05.1c0,.05,0,.07,0,.06s0,.13,0,.17,0-.15.05-.16a.5.5,0,0,1,0,.16v0s0,.18,0,.11l-.05.1a.67.67,0,0,1,0,.22s0-.07-.06.09l0,.13c0,.07,0,.09,0,.08-.07.23,0,.25-.08.43,0-.08,0,0-.05.07s0,0,0,0,0-.06,0-.12,0,.08,0,.12-.18.54-.29.8c0,0,0,.12,0,.18s-.05.14-.09.21l0,0c-.08.15-.07.27-.14.36s0,0,0-.08c-.08.11-.12.33-.19.42s0,0,0,.09a1.77,1.77,0,0,1-.14.22.65.65,0,0,1-.08.17.64.64,0,0,0,0-.07,2.22,2.22,0,0,0-.14.32,4.19,4.19,0,0,0-.24.39c0,.09-.13.21-.11.23l0,0a.71.71,0,0,1-.07.16v0s-.1.14-.13.18-.05.07,0,.08l0,.08c-.07.11,0,0-.09.16s0,0,0,0a1.43,1.43,0,0,0-.14.2s0,0,0,0a0,0,0,0,0,0,0l-.06.08h0l.05-.07-.05.07a0,0,0,0,0,0,0l-.05,0v0L170,142l-.47.59s0,0,0,0-.1.14-.12.14-.05,0-.13.13h0c-.15.12-.3.32-.48.47l0-.05-.37.36s0,0,0-.05-.21.18-.24.22,0,0,0,0,0,.07-.11.11h0a1.66,1.66,0,0,1-.21.16c-.07,0,.05,0,0,0s-.25.14-.27.15-.06.05,0,.05-.05,0-.11.05l-.11.09-.09.07h0s0,0,0,0l0,0h0l0-.16v0c0-.11,0-.21-.05-.32l0-.13s0-.05,0,0,0-.14-.07-.24l-.05-.14a.5.5,0,0,0,0-.13c0,.06,0,0-.05-.06a.48.48,0,0,0-.08-.12l-.06-.11s0,0,0-.05a3.42,3.42,0,0,0-.37-.45h0c-.07-.05-.15-.13-.24-.19l-.14-.08-.07,0h0l-.1,0h0l-.1,0h0l-.18-.05-.1,0h-.06a.91.91,0,0,0-.33,0h-.07l.05,0-.13,0-.05,0-.1,0h-.07l-.14.06h0l-.14.06-.12,0a1.75,1.75,0,0,0-.39.33,1.55,1.55,0,0,0-.24.46l0,.12v.13a1.13,1.13,0,0,0,0,.26,1.46,1.46,0,0,0,.12.39l0,.09c0,.05,0,0,0,0s0-.09,0-.05,0,.11.16.28h0a2.14,2.14,0,0,0,.13.19h0c.08.07.13.19.19.21l0,.06c.09,0,.11.12.22.17h0a2.52,2.52,0,0,0,.34.2.81.81,0,0,0,.28.09l.05,0h0a2.37,2.37,0,0,0,.8.07,1.35,1.35,0,0,0,.28,0,3.3,3.3,0,0,0,.62-.15,4.48,4.48,0,0,1-.32,1,6.49,6.49,0,0,1-.62,1l-.16.21-.43.55-.26.28,0,0-.1.1a11.43,11.43,0,0,1-1.08,1l-.07.06a.17.17,0,0,0,0,.24A.18.18,0,0,0,164.09,149.55Zm1.91-4.69h0a0,0,0,0,1,.05,0h0Zm.62-.12h0l0,0h-.05l-.1,0h-.05l-.1,0-.11,0h-.09s0,0,0,0h0a.34.34,0,0,0-.1,0v0h-.06s0,0,0,0h0v0s-.06,0-.07,0h0s0,0,0,0,0,0,0,0-.1,0-.13,0h-.1s0,0,0,0v0s0,0,0,0l-.13,0s0,0,0,0h-.09s0,0,0,0h0s0,0,0-.05.05,0,.05,0a.06.06,0,0,1,.08,0s0,0,0,0h-.08s0,0,0,0,0,0,0,0h0s0,0,.06,0v0s0,0,0,0h0s0,0,0,0,0,0,0,0,0,0,0,0h0s0,0,0,0,0,0,0,0,0,0,0,0,0,0,0,0,0,0,0,0,0-.05,0-.06-.08,0-.07.05h0s0,0,0,0h0l0-.06s0,0,0,0,0,0,0,0,0,0,0,0,0,0,0,0h0s0,0,0,0l0,0s0,0,0,0h0s0,0,0,0h0s-.05,0,0,0,0,0,0,0,0,0,0,0,0,0,0,0v0h0s0,0,0,0,0,0,0,0-.05,0-.06,0,0,0,0,0,0,0,0,0,0,0,0,0,0,0,0,0,0,0,0,0,0,0,0,0,0,0,0,0,0,0-.08,0,0,0-.05,0,0,0,0,0v0s.07,0,.07,0h0l0,0s0,0,0,0,0,0,0,0,0,0-.05,0,0,0,0,0,0,0,0,0h0a.5.5,0,0,0-.15-.17s0,0,0-.08,0,0,0,0v0s0,0,0,0h0s0,0,0,0v0h0s0,0,0,0h0a.15.15,0,0,0,0-.11s0,0,0,0,0,0,0,0,0,0,0,0a.06.06,0,0,0,0,0v0h0a.31.31,0,0,1,0-.09v0s0,0,0-.06a.07.07,0,0,1,0-.05s0,0,0,0,0,0,.05,0,0,0,0,0h0s0,0,0,0h0s0,0,0,0,0,0,0-.05h0l0,0s0,0,0,0,0,0,0,0,0,0,0,0,0,0,0,0,0,0,0,0a0,0,0,0,1,0,0s0,0,0,0,0,0,0,0l0,0s0,0,0,0h0s0,0,0,0h0s0,0,0,0,0,0,0,0v0h0s0-.07,0-.08,0,0,0,0h0s0,0,0,0,0,0,0,0,0,0,.08,0l.07,0s0,0,0,0,0,0,.05,0l0,0s0-.06.06,0,0,0,0,0,.05-.05.08,0,0,0,0,0l.06,0s0,0,0,0,0,0,0,0,0,0,.06,0h.09s.05,0,.05,0h0l0,0v0s0,0,0,0,0,0,0,0h0s0,0,0,0,0,0,0,0h.05s0,0,0,0h0v0l0,0h.15l0,0s0,0,0,0,.09,0,.13,0h.07s.06,0,.07,0,0,0,0,0,0,0,0,0h0l0,0s0,0,0,0,0,0,0,0h0s0,0,0,0H166s0,0,0,0a.08.08,0,0,0,.07,0l.07,0s0,0,0,0,.05,0,.07.07,0,0,.06,0l0,0s0,0,0,0,0,.06.08.08h0s.05.07.09.08h0s0,0,.06.06h0l0,0h0s0,0,0,0h0v0s0,0,0,0v.05c.06.11.11.23.18.34v0s0,0,0,0,0,0,0,.06h0s0,0,0,.05h0s0,.05,0,.05l0,0s0,0,0,0h0s0,.06,0,.08a.08.08,0,0,0,0,0h0l.06.22a2.24,2.24,0,0,1,0,.45l-.07,0h-.08l-.11,0Zm-.81.12Zm-.32-2.44Zm0,0Zm-.14,0h0Zm-1.1,1.28h0Zm.35,5.43.1-.09h0l0-.05,0,0a.77.77,0,0,1-.18.18Zm.76-.75,0-.06v0S165.37,148.35,165.36,148.36Zm4.78-6.48,0,.05Z"/><path class="cls-4" d="M165.08,144.56h0Z"/><path class="cls-4" d="M165.53,144.73h0S165.53,144.74,165.53,144.73Z"/><path class="cls-4" d="M165.51,144.74h0s0,0,0,0,0,0,0,.05h0Z"/><path class="cls-4" d="M165.66,142.47Z"/><polygon class="cls-4" points="165.3 142.41 165.3 142.41 165.3 142.41 165.3 142.41"/><path class="cls-4" d="M165.51,144.75Z"/><path class="cls-4" d="M165.53,144.76h0Z"/><path class="cls-4" d="M165.4,144.72h0Z"/><path class="cls-4" d="M165.28,144.64h0S165.27,144.63,165.28,144.64Z"/><path class="cls-4" d="M165.26,144.66s0,0,0,0S165.25,144.66,165.26,144.66Z"/><path class="cls-4" d="M165,144.51s0,0,0,0Z"/><path class="cls-4" d="M164.9,144.45h0S164.89,144.44,164.9,144.45Z"/><polygon class="cls-4" points="164.71 142.53 164.71 142.54 164.72 142.53 164.71 142.53"/><path class="cls-4" d="M165.73,142.5s0,0,0,0S165.75,142.5,165.73,142.5Z"/><polygon class="cls-4" points="166.24 142.78 166.25 142.78 166.26 142.77 166.24 142.78"/><path class="cls-4" d="M166.45,147.15a.29.29,0,0,0,.09-.12s0,.05,0,0,0,0-.11.1h0S166.46,147.13,166.45,147.15Z"/><path class="cls-4" d="M166.45,147.15a.43.43,0,0,0,0,.07S166.45,147.17,166.45,147.15Z"/><path class="cls-4" d="M167.41,145h0Z"/><path class="cls-4" d="M168.87,143.29l0,0Z"/><path class="cls-4" d="M170.59,141.2h0Z"/><path class="cls-4" d="M164.83,142h0Z"/><path class="cls-4" d="M166.45,147.13h0Z"/><path class="cls-4" d="M170.26,141.7h0Z"/><path class="cls-4" d="M164.44,149.26l0,0Z"/><path class="cls-4" d="M166.37,147.24s0,0,0,0a.73.73,0,0,0,.05-.09S166.37,147.24,166.37,147.24Z"/><path class="cls-4" d="M166.78,146.6l-.12.24A1.69,1.69,0,0,0,166.78,146.6Z"/><path class="cls-4" d="M167.12,146c0-.08,0-.09,0,0S167.11,146,167.12,146Z"/><path class="cls-4" d="M167.16,145.82l0,.1S167.15,145.85,167.16,145.82Z"/><path class="cls-4" d="M167.16,145.82h0Z"/><path class="cls-4" d="M167.78,144.78l.14-.08A.64.64,0,0,0,167.78,144.78Z"/><path class="cls-4" d="M168.43,144.34l0,0h0S168.47,144.32,168.43,144.34Z"/><polygon class="cls-4" points="171.76 138.9 171.74 138.97 171.77 138.91 171.76 138.9"/><path class="cls-4" d="M168.58,143.54c-.07.06,0,0-.06,0S168.52,143.6,168.58,143.54Z"/><path class="cls-4" d="M167,143.09v0Z"/></svg>