<svg width="36" height="36" xmlns="http://www.w3.org/2000/svg"><path d="M18 0C8.075 0 0 8.075 0 18c0 4.347 1.55 8.339 4.124 11.453.007.009.008.02.015.029a17.995 17.995 0 0 0 6.797 5.071l.089.04c.21.088.424.17.637.25.084.033.168.065.253.096a17.815 17.815 0 0 0 .916.3 19.671 19.671 0 0 0 .939.253 16.298 16.298 0 0 0 .958.203c.137.025.273.052.411.074.19.03.38.055.57.08.123.015.246.033.37.046.215.023.433.039.651.054.102.007.203.018.305.023a17.12 17.12 0 0 0 1.932.002c.102-.006.202-.017.304-.024.218-.015.436-.031.652-.054.124-.013.246-.031.369-.047.19-.024.381-.048.57-.079.137-.022.274-.048.411-.074.17-.03.34-.063.508-.099a19.517 19.517 0 0 0 1.749-.469c.186-.06.372-.122.556-.188.084-.03.168-.063.253-.095.214-.08.427-.163.637-.251l.09-.04a18 18 0 0 0 6.796-5.071c.008-.009.008-.02.015-.029A17.927 17.927 0 0 0 36 18c0-9.925-8.075-18-18-18zm7.294 33.132l-.026.013c-.214.103-.432.2-.652.295l-.149.064a16.277 16.277 0 0 1-1.679.597 15.156 15.156 0 0 1-.873.233c-.141.034-.281.068-.424.098-.155.033-.312.061-.468.09-.126.023-.252.048-.38.068-.176.028-.353.05-.53.072-.113.014-.224.031-.338.043-.202.022-.406.036-.61.05-.09.006-.18.016-.272.021a17.023 17.023 0 0 1-1.786 0c-.091-.005-.181-.014-.272-.021a15.745 15.745 0 0 1-.61-.05c-.113-.012-.225-.029-.337-.043-.177-.022-.355-.044-.53-.072-.128-.02-.254-.045-.38-.068a16.956 16.956 0 0 1-.469-.09c-.142-.03-.283-.064-.423-.098-.135-.032-.27-.064-.402-.1a17.634 17.634 0 0 1-2.15-.73c-.05-.02-.1-.042-.149-.063a16.786 16.786 0 0 1-.679-.308 16.881 16.881 0 0 1-5.443-4.197c1.16-4.27 4.443-7.713 8.667-9.083.084.05.17.096.256.144.05.029.1.059.152.086.178.094.36.183.545.263.142.062.29.115.436.17l.086.031A7.754 7.754 0 0 0 18 21c.91 0 1.781-.165 2.594-.453l.087-.032c.146-.054.293-.107.435-.169a7.47 7.47 0 0 0 .546-.263l.151-.086c.086-.048.173-.093.257-.145 4.224 1.37 7.507 4.813 8.667 9.084a16.898 16.898 0 0 1-5.443 4.196zM11.4 13.2c0-3.639 2.961-6.6 6.6-6.6s6.6 2.961 6.6 6.6a6.596 6.596 0 0 1-3.745 5.941c-.03.015-.059.03-.089.043a6.751 6.751 0 0 1-5.532 0c-.03-.013-.06-.028-.09-.043A6.596 6.596 0 0 1 11.4 13.2zm20.237 14.594a14.457 14.457 0 0 0-8.428-8.805A7.775 7.775 0 0 0 25.8 13.2c0-4.3-3.5-7.8-7.8-7.8s-7.8 3.5-7.8 7.8a7.774 7.774 0 0 0 2.591 5.79 14.458 14.458 0 0 0-8.428 8.804A16.701 16.701 0 0 1 1.2 18C1.2 8.737 8.737 1.2 18 1.2c9.263 0 16.8 7.537 16.8 16.8 0 3.653-1.175 7.034-3.163 9.794z" fill="#FFF"/></svg>